<svg width="40" height="40" viewBox="0 0 40 40" fill="none" xmlns="http://www.w3.org/2000/svg">
<g clip-path="url(#clip0_448_258)">
<g clip-path="url(#clip1_448_258)">
<path fill-rule="evenodd" clip-rule="evenodd" d="M7.70659 0.308552C6.03881 0.712846 4.16271 1.78818 2.90832 3.05881C1.59947 4.38474 0.89051 5.54271 0.372778 7.19959C0.0134577 8.34978 -0.00418543 8.95356 0.000557446 19.9288C0.00530032 31.3508 0.00909489 31.4614 0.429503 32.6965C1.35057 35.4021 3.2517 37.6362 5.65767 38.8405C7.98547 40.0057 7.91509 40 20.2003 40C31.2278 40 31.4132 39.9937 32.7294 39.5792C35.8694 38.5897 38.3613 36.182 39.493 33.044C39.9282 31.8376 39.931 31.7678 39.987 20.9062C40.0264 13.2836 39.9773 9.58869 39.8244 8.68093C39.1579 4.72082 35.6922 1.12778 31.7268 0.286324C29.867 -0.10847 9.34801 -0.0892817 7.70659 0.308552ZM10.4774 10.2122L8.15337 10.2787V19.3922V28.5058H9.84051C11.204 28.5058 11.5496 28.4482 11.6428 28.2052C11.7062 28.0399 11.758 26.7292 11.758 25.2923V22.6802L13.4314 22.6693C16.6205 22.649 18.7114 21.8075 19.8656 20.08C20.7121 18.8133 20.9233 17.8818 20.8197 15.8716C20.7169 13.8769 20.3439 12.9784 19.1819 11.9271C17.4504 10.3606 15.9097 10.057 10.4774 10.2122ZM11.758 16.4193C11.758 19.5592 11.639 19.3825 13.75 19.3795C15.18 19.3776 16.3553 18.8683 16.8867 18.02C17.1967 17.5252 17.2658 17.1595 17.2107 16.3017C17.0903 14.4189 16.0085 13.6867 13.3474 13.6867H11.758V16.4193ZM26.495 14.6441C25.2932 14.9461 24.0801 15.7781 23.4954 16.7014C23.0523 17.4012 22.9511 17.7724 22.9511 18.6986C22.9511 20.8303 24.0033 22.0654 26.7509 23.1587C28.421 23.8233 29.022 24.2553 29.022 24.7915C29.022 25.0506 28.8706 25.3438 28.6855 25.443C28.1672 25.7207 25.3723 25.3379 24.0803 24.8122L22.9511 24.3526V26.2318V28.1111L23.9471 28.4163C25.3791 28.8551 27.632 28.9832 28.8532 28.6954C31.4739 28.0773 32.6304 26.7833 32.6224 24.478C32.6147 22.2204 31.7129 21.1458 28.8266 19.9538C27.0516 19.2211 26.366 18.7957 26.366 18.4275C26.366 17.5608 28.7782 17.3516 30.7881 18.0439L31.8677 18.4159V16.6416C31.8677 15.1318 31.8182 14.8464 31.5357 14.7275C31.008 14.5052 27.2924 14.4436 26.495 14.6441Z" fill="#072C4C"/>
<path fill-rule="evenodd" clip-rule="evenodd" d="M10.4774 10.2122L8.15337 10.2787V19.3922V28.5058H9.84051C11.204 28.5058 11.5496 28.4482 11.6428 28.2052C11.7062 28.0399 11.758 26.7292 11.758 25.2923V22.6802L13.4314 22.6693C16.6205 22.649 18.7114 21.8075 19.8656 20.08C20.7121 18.8133 20.9233 17.8818 20.8197 15.8716C20.7169 13.8769 20.3439 12.9784 19.1819 11.9271C17.4504 10.3606 15.9097 10.057 10.4774 10.2122ZM13.75 19.3795C11.639 19.3825 11.758 19.5592 11.758 16.4193V13.6867H13.3474C16.0085 13.6867 17.0903 14.4189 17.2107 16.3017C17.2658 17.1595 17.1967 17.5252 16.8867 18.02C16.3553 18.8683 15.18 19.3776 13.75 19.3795Z" fill="#31A8FF"/>
<path d="M26.495 14.6441C25.2932 14.9461 24.0801 15.7781 23.4954 16.7014C23.0523 17.4012 22.9511 17.7724 22.9511 18.6986C22.9511 20.8303 24.0033 22.0654 26.7509 23.1587C28.421 23.8233 29.022 24.2553 29.022 24.7915C29.022 25.0506 28.8706 25.3438 28.6855 25.443C28.1672 25.7207 25.3723 25.3379 24.0803 24.8122L22.9511 24.3526V26.2318V28.1111L23.9471 28.4163C25.3791 28.8551 27.632 28.9832 28.8532 28.6954C31.4739 28.0773 32.6304 26.7833 32.6224 24.478C32.6147 22.2204 31.7129 21.1458 28.8266 19.9538C27.0516 19.2211 26.366 18.7957 26.366 18.4275C26.366 17.5608 28.7782 17.3516 30.7881 18.0439L31.8677 18.4159V16.6416C31.8677 15.1318 31.8182 14.8464 31.5357 14.7275C31.008 14.5052 27.2924 14.4436 26.495 14.6441Z" fill="#31A8FF"/>
</g>
</g>
<defs>
<clipPath id="clip0_448_258">
<rect width="40" height="40" fill="white"/>
</clipPath>
<clipPath id="clip1_448_258">
<rect width="40" height="40" fill="white"/>
</clipPath>
</defs>
</svg>
