<svg width="405" height="405" viewBox="0 0 405 405" fill="none" xmlns="http://www.w3.org/2000/svg">
<path d="M195.606 8.2168C199.202 3.9301 205.798 3.93011 209.394 8.2168L218.57 19.1525C221.615 22.7808 226.95 23.4287 230.775 20.6344L242.301 12.2124C246.819 8.91101 253.223 10.4894 255.689 15.5123L261.981 28.3262C264.069 32.5776 269.094 34.4835 273.476 32.6856L286.683 27.2668C291.86 25.1426 297.7 28.2076 298.893 33.6748L301.935 47.6221C302.945 52.2496 307.368 55.3028 312.053 54.6058L326.173 52.505C331.708 51.6816 336.645 56.055 336.494 61.6488L336.111 75.9191C335.983 80.6537 339.548 84.6767 344.263 85.1211L358.475 86.4605C364.047 86.9855 367.793 92.4134 366.308 97.8086L362.521 111.572C361.264 116.139 363.762 120.898 368.234 122.458L381.713 127.16C386.997 129.003 389.335 135.169 386.603 140.053L379.632 152.51C377.319 156.643 378.605 161.862 382.574 164.447L394.536 172.238C399.225 175.291 400.02 181.839 396.198 185.926L386.448 196.353C383.213 199.813 383.213 205.187 386.448 208.647L396.198 219.074C400.02 223.161 399.225 229.709 394.536 232.762L382.574 240.553C378.605 243.138 377.319 248.357 379.632 252.49L386.603 264.947C389.335 269.831 386.997 275.997 381.713 277.84L368.234 282.542C363.762 284.102 361.264 288.861 362.521 293.428L366.308 307.191C367.793 312.587 364.047 318.014 358.475 318.539L344.263 319.879C339.548 320.323 335.983 324.346 336.111 329.081L336.494 343.351C336.645 348.945 331.708 353.318 326.173 352.495L312.053 350.394C307.368 349.697 302.945 352.75 301.935 357.378L298.893 371.325C297.7 376.792 291.86 379.857 286.683 377.733L273.476 372.314C269.094 370.516 264.069 372.422 261.981 376.674L255.689 389.488C253.223 394.511 246.819 396.089 242.301 392.788L230.775 384.366C226.95 381.571 221.615 382.219 218.57 385.847L209.394 396.783C205.798 401.07 199.202 401.07 195.606 396.783L186.43 385.847C183.385 382.219 178.05 381.571 174.225 384.366L162.699 392.788C158.181 396.089 151.777 394.511 149.311 389.488L143.019 376.674C140.931 372.422 135.906 370.516 131.524 372.314L118.317 377.733C113.14 379.857 107.3 376.792 106.107 371.325L103.065 357.378C102.055 352.75 97.6317 349.697 92.947 350.394L78.827 352.495C73.2921 353.318 68.3555 348.945 68.5058 343.351L68.8893 329.081C69.0165 324.346 65.4524 320.323 60.737 319.879L46.5246 318.539C40.9535 318.014 37.2069 312.587 38.6915 307.191L42.479 293.428C43.7356 288.861 41.2378 284.102 36.7657 282.542L23.2869 277.84C18.0033 275.997 15.6646 269.831 18.3972 264.947L25.3685 252.49C27.6815 248.357 26.3952 243.138 22.4264 240.553L10.4644 232.762C5.77539 229.709 4.98042 223.161 8.80231 219.074L18.5523 208.647C21.7872 205.187 21.7872 199.813 18.5523 196.353L8.80231 185.926C4.98042 181.839 5.7754 175.291 10.4644 172.238L22.4264 164.447C26.3952 161.862 27.6815 156.643 25.3685 152.51L18.3972 140.053C15.6646 135.169 18.0033 129.003 23.2869 127.16L36.7657 122.458C41.2378 120.898 43.7356 116.139 42.479 111.572L38.6915 97.8086C37.2069 92.4134 40.9535 86.9855 46.5246 86.4605L60.737 85.1211C65.4524 84.6767 69.0165 80.6537 68.8893 75.9191L68.5058 61.6488C68.3555 56.055 73.2921 51.6816 78.827 52.505L92.947 54.6058C97.6317 55.3028 102.055 52.2496 103.065 47.6221L106.107 33.6748C107.3 28.2076 113.14 25.1426 118.317 27.2668L131.524 32.6856C135.906 34.4835 140.931 32.5776 143.019 28.3262L149.311 15.5123C151.777 10.4894 158.181 8.91101 162.699 12.2124L174.225 20.6344C178.05 23.4287 183.385 22.7808 186.43 19.1525L195.606 8.2168Z" fill="url(#paint0_linear_596_60)"/>
<path d="M168.817 253.974C157.347 253.974 148.18 250.731 141.316 244.243C134.547 237.662 131.162 227.79 131.162 214.627V190.651C131.162 177.771 134.547 167.992 141.316 161.317C148.18 154.642 157.347 151.304 168.817 151.304C180.382 151.304 189.549 154.642 196.319 161.317C203.182 167.992 206.614 177.771 206.614 190.651V214.627C206.614 227.79 203.182 237.662 196.319 244.243C189.549 250.731 180.382 253.974 168.817 253.974ZM168.817 240.718C176.621 240.718 182.403 238.508 186.164 234.089C189.925 229.576 191.806 223.277 191.806 215.191V189.805C191.806 181.72 189.784 175.514 185.741 171.189C181.698 166.77 176.057 164.561 168.817 164.561C161.484 164.561 155.843 166.817 151.894 171.33C147.945 175.749 145.97 181.908 145.97 189.805V215.191C145.97 223.465 147.851 229.811 151.612 234.23C155.467 238.555 161.202 240.718 168.817 240.718ZM221.701 252V248.474C221.701 244.901 221.983 241.94 222.547 239.589C223.111 237.145 224.286 234.324 226.073 231.127L261.331 168.369V166.535H205.905V153.278H276.703V170.766L239.612 237.333C238.484 239.401 237.684 241.282 237.214 242.974C236.744 244.572 236.509 246.594 236.509 249.038V252H221.701Z" fill="black"/>
<path d="M149.882 296.915C151.033 297.557 151.771 298.395 152.097 299.431C152.408 300.47 152.195 301.65 151.458 302.971L150.116 305.377C149.396 306.67 148.509 307.461 147.456 307.752C146.393 308.038 145.286 307.86 144.135 307.218C142.975 306.571 142.242 305.723 141.936 304.674C141.621 303.62 141.824 302.446 142.545 301.154L143.887 298.748C144.624 297.427 145.52 296.628 146.578 296.352C147.62 296.08 148.721 296.268 149.882 296.915ZM149.14 298.245C148.357 297.808 147.653 297.706 147.028 297.939C146.398 298.182 145.857 298.709 145.404 299.52L143.984 302.068C143.531 302.879 143.386 303.615 143.55 304.275C143.708 304.945 144.151 305.482 144.877 305.888C145.613 306.298 146.306 306.387 146.955 306.155C147.598 305.933 148.141 305.426 148.583 304.633L150.004 302.086C150.467 301.255 150.634 300.513 150.503 299.859C150.359 299.209 149.904 298.671 149.14 298.245ZM142.467 292.78L142.236 293.113C142.001 293.45 141.78 293.711 141.573 293.895C141.359 294.089 141.063 294.278 140.685 294.462L133.241 298.069L133.121 298.242L138.349 301.878L137.479 303.129L130.801 298.484L131.949 296.834L139.815 292.989C140.057 292.867 140.256 292.743 140.411 292.614C140.561 292.494 140.715 292.319 140.876 292.088L141.07 291.809L142.467 292.78ZM131.083 284.24L130.011 285.367L128.907 284.317L123.233 290.281L124.337 291.331L123.265 292.458L119.977 289.331C118.881 288.288 118.308 287.214 118.258 286.107C118.199 284.993 118.703 283.876 119.767 282.757L121.231 281.219C122.296 280.099 123.386 279.541 124.502 279.544C125.602 279.547 126.7 280.07 127.796 281.112L131.083 284.24ZM127.605 283.123L126.69 282.252C125.977 281.574 125.278 281.251 124.591 281.284C123.904 281.316 123.222 281.689 122.544 282.401L121.003 284.021C120.317 284.741 119.98 285.441 119.989 286.121C119.998 286.801 120.359 287.48 121.071 288.157L121.987 289.029L127.605 283.123ZM122.104 275.567L113.657 283.139L112.489 281.835L120.936 274.264L122.104 275.567ZM119.076 272.15L108.102 276.481L106.228 274.037L113.268 264.576L114.362 266.003L112.694 268.222L115.396 271.745L117.971 270.71L119.076 272.15ZM113.844 272.384L111.674 269.555L107.948 274.495L108.106 274.701L113.844 272.384ZM109.837 258.869C110.283 259.596 110.549 260.32 110.636 261.04C110.722 261.76 110.615 262.433 110.316 263.061C110.001 263.684 109.485 264.216 108.766 264.657L108.421 264.869L107.515 263.39L107.86 263.179C108.541 262.761 108.928 262.245 109.021 261.631C109.108 261.007 108.942 260.355 108.524 259.673C108.101 258.982 107.639 258.549 107.139 258.374C106.63 258.205 106.145 258.262 105.684 258.544C105.38 258.73 105.182 258.966 105.091 259.25C104.999 259.534 104.991 259.862 105.067 260.234C105.133 260.611 105.246 261.043 105.404 261.529L105.593 262.116C105.824 262.824 105.975 263.473 106.045 264.063C106.101 264.65 106.025 265.178 105.818 265.646C105.612 266.115 105.227 266.522 104.665 266.866C104.094 267.216 103.522 267.378 102.947 267.35C102.367 267.313 101.814 267.113 101.288 266.751C100.762 266.389 100.293 265.872 99.8804 265.2C99.4682 264.528 99.2164 263.858 99.1248 263.192C99.0276 262.517 99.1115 261.889 99.3765 261.308C99.6415 260.728 100.115 260.228 100.796 259.811L101.294 259.506L102.2 260.984L101.703 261.289C101.288 261.543 101.006 261.836 100.855 262.17C100.699 262.493 100.654 262.844 100.72 263.221C100.787 263.599 100.944 263.99 101.193 264.395C101.554 264.985 101.961 265.369 102.413 265.548C102.85 265.724 103.285 265.679 103.718 265.414C104.013 265.233 104.214 265.014 104.323 264.757C104.417 264.497 104.439 264.192 104.389 263.842C104.34 263.493 104.234 263.082 104.072 262.611L103.883 262.024C103.637 261.313 103.478 260.65 103.405 260.036C103.324 259.427 103.382 258.872 103.581 258.369C103.78 257.867 104.17 257.438 104.75 257.083C105.331 256.727 105.927 256.564 106.541 256.593C107.149 256.613 107.741 256.814 108.317 257.196C108.884 257.583 109.391 258.141 109.837 258.869ZM103.687 248.225L102.248 248.815L101.669 247.406L94.0533 250.531L94.6316 251.94L93.1923 252.531L91.47 248.333C90.8958 246.933 90.8119 245.718 91.218 244.688C91.6201 243.647 92.5358 242.833 93.965 242.247L95.929 241.441C97.3582 240.855 98.5815 240.791 99.5987 241.249C100.602 241.702 101.39 242.628 101.964 244.027L103.687 248.225ZM100.969 245.784L100.489 244.615C100.116 243.705 99.6092 243.125 98.969 242.874C98.3288 242.623 97.554 242.684 96.6445 243.057L94.5755 243.906C93.656 244.283 93.0616 244.784 92.7923 245.408C92.5229 246.032 92.5749 246.799 92.948 247.709L93.4278 248.878L100.969 245.784ZM99.06 236.632L88.1827 239.85L86.1549 232.998L87.6778 232.547L89.2089 237.722L92.3323 236.797L90.9299 232.058L92.4527 231.607L93.8551 236.347L97.0406 235.404L95.4865 230.152L97.0093 229.701L99.06 236.632ZM94.8535 217.441C94.961 218.244 94.8857 218.984 94.6276 219.662C94.3588 220.341 93.9114 220.908 93.2856 221.362C92.6597 221.817 91.8595 222.109 90.8851 222.239L88.251 222.592C86.784 222.788 85.6113 222.536 84.7328 221.837C83.8437 221.138 83.3074 220.104 83.1239 218.733C82.9434 217.384 83.1738 216.296 83.8152 215.469C84.4458 214.643 85.3769 214.148 86.6083 213.983L86.6886 213.972L86.9186 215.691L86.7901 215.708C86.3297 215.77 85.9296 215.916 85.5899 216.147C85.2395 216.379 84.9816 216.691 84.8161 217.084C84.6507 217.477 84.606 217.957 84.6819 218.524C84.7966 219.381 85.1485 220.015 85.7377 220.427C86.3161 220.84 87.0658 220.985 87.9867 220.862L90.6851 220.5C91.5953 220.379 92.2858 220.041 92.7567 219.487C93.2169 218.935 93.389 218.226 93.2729 217.358C93.1582 216.502 92.8388 215.907 92.3146 215.574C91.7905 215.24 91.1536 215.124 90.404 215.224L90.1952 215.252L90.5994 218.272L89.1056 218.472L88.4715 213.734L94.0289 212.99L94.2438 214.596L93.1035 214.749L93.1378 215.006C93.3542 215.075 93.5823 215.191 93.8223 215.355C94.0608 215.509 94.2733 215.753 94.4598 216.088C94.6449 216.412 94.7761 216.863 94.8535 217.441ZM93.7069 210.31L82.2825 207.367L82.202 204.289L93.4574 200.769L93.5044 202.567L90.851 203.382L90.967 207.821L93.6595 208.496L93.7069 210.31ZM89.3357 207.426L89.2425 203.862L83.3242 205.67L83.331 205.929L89.3357 207.426ZM93.507 197.947L82.1983 197.06L82.5711 192.31C82.626 191.61 82.7981 191.006 83.0872 190.498C83.3664 189.978 83.7436 189.59 84.2188 189.335C84.6948 189.069 85.2452 188.96 85.8698 189.009L86.0475 189.023C86.7584 189.079 87.3157 189.296 87.7194 189.675C88.1133 190.041 88.3773 190.474 88.5116 190.972L88.7701 190.992C88.8238 190.585 88.9896 190.267 89.2675 190.04C89.5346 189.812 89.9052 189.716 90.3791 189.753L94.1271 190.047L93.9889 191.808L90.4832 191.533C90.1924 191.51 89.9549 191.568 89.7707 191.705C89.5866 191.842 89.4814 192.078 89.4552 192.412L89.1851 195.853L93.644 196.203L93.507 197.947ZM87.6019 195.728L87.8225 192.917C87.8715 192.293 87.7534 191.796 87.4681 191.427C87.1721 191.057 86.7494 190.85 86.2001 190.807L86.0709 190.797C85.5216 190.754 85.0773 190.892 84.7379 191.212C84.3886 191.521 84.189 191.993 84.1391 192.628L83.9184 195.439L87.6019 195.728ZM94.3788 187.3L83.8201 182.037L84.3836 179.01L96.1258 177.916L95.7966 179.685L93.0315 179.928L92.2188 184.293L94.711 185.516L94.3788 187.3ZM90.7057 183.567L91.3582 180.062L85.193 180.595L85.1455 180.85L90.7057 183.567ZM96.7671 175.168L85.9038 171.902L86.8742 168.675L97.5066 168.656L97.5812 168.408L87.8353 165.478L88.3345 163.817L99.1978 167.083L98.2274 170.311L87.5795 170.325L87.5049 170.573L97.2663 173.508L96.7671 175.168ZM101.426 161.134L92.4428 157.33L91.0843 160.538L89.6219 159.919L93.0214 151.891L94.4838 152.51L93.1252 155.718L102.109 159.522L101.426 161.134ZM104.67 153.701L94.5883 148.502L95.3903 146.947L105.473 152.145L104.67 153.701ZM106.787 149.654L98.8442 140.931L100.464 138.312L111.807 141.536L110.861 143.066L108.195 142.294L105.86 146.07L107.742 148.11L106.787 149.654ZM104.712 144.845L106.587 141.813L100.646 140.082L100.509 140.303L104.712 144.845ZM116.505 135.008L107.681 127.879L108.781 126.518L117.605 133.647L116.505 135.008ZM119.976 130.863L111.751 123.051L114.073 120.607L123.572 125.383L123.75 125.195L116.372 118.186L117.566 116.929L125.791 124.742L123.469 127.186L113.958 122.398L113.78 122.586L121.17 129.606L119.976 130.863ZM131.754 119.631C130.7 120.526 129.612 120.939 128.491 120.87C127.363 120.793 126.32 120.19 125.362 119.062L123.643 117.035C122.685 115.907 122.264 114.784 122.378 113.667C122.486 112.541 123.067 111.531 124.121 110.636C125.159 109.755 126.203 109.366 127.252 109.467C128.31 109.561 129.261 110.107 130.107 111.104L130.17 111.178L128.848 112.3L128.754 112.188C128.257 111.604 127.691 111.262 127.056 111.164C126.428 111.059 125.789 111.283 125.138 111.835C124.479 112.394 124.135 113.033 124.107 113.751C124.072 114.461 124.355 115.17 124.956 115.878L126.718 117.954C127.312 118.654 127.965 119.049 128.679 119.138C129.392 119.227 130.078 118.992 130.737 118.433C131.388 117.881 131.712 117.286 131.711 116.65C131.711 115.999 131.466 115.385 130.976 114.808L130.798 114.598L132.12 113.476L132.267 113.649C133.113 114.646 133.496 115.673 133.417 116.732C133.346 117.784 132.792 118.751 131.754 119.631ZM141.059 112.526C139.903 113.304 138.767 113.6 137.652 113.413C136.53 113.217 135.556 112.505 134.73 111.278L133.246 109.073C132.42 107.845 132.13 106.679 132.377 105.575C132.618 104.463 133.316 103.517 134.472 102.739C135.628 101.961 136.767 101.67 137.889 101.866C139.013 102.046 139.988 102.751 140.815 103.979L142.299 106.183C143.125 107.411 143.414 108.585 143.164 109.703C142.917 110.807 142.216 111.748 141.059 112.526ZM140.182 111.222C140.926 110.721 141.354 110.12 141.468 109.419C141.576 108.708 141.376 107.976 140.87 107.223L139.313 104.911C138.807 104.158 138.207 103.702 137.514 103.544C136.815 103.376 136.094 103.543 135.35 104.043C134.624 104.532 134.203 105.134 134.086 105.851C133.963 106.559 134.155 107.289 134.662 108.042L136.218 110.354C136.725 111.107 137.332 111.564 138.04 111.726C138.742 111.879 139.456 111.711 140.182 111.222ZM147.58 108.024L142.343 97.9617L145.333 96.4057L152.762 104.012L152.992 103.892L148.294 94.8646L149.832 94.0641L155.069 104.127L152.079 105.683L144.642 98.0622L144.412 98.1819L149.118 107.224L147.58 108.024ZM157.972 102.71L157.409 101.26L158.83 100.709L155.855 93.0335L154.434 93.584L153.872 92.1335L158.103 90.4936C159.513 89.947 160.729 89.8869 161.752 90.3131C162.785 90.7355 163.58 91.6669 164.139 93.1074L164.906 95.0868C165.464 96.5272 165.504 97.7515 165.026 98.7595C164.554 99.7536 163.613 100.524 162.202 101.07L157.972 102.71ZM160.465 100.041L161.643 99.5839C162.56 99.2286 163.15 98.7334 163.414 98.0982C163.678 97.463 163.632 96.6871 163.276 95.7705L162.468 93.6853C162.109 92.7586 161.62 92.1545 161.001 91.873C160.382 91.5915 159.614 91.6284 158.698 91.9837L157.519 92.4405L160.465 100.041ZM169.646 98.289L166.423 87.4129L168.101 86.9157L171.324 97.7918L169.646 98.289ZM179.023 96.1853C177.671 96.4735 176.517 96.3217 175.563 95.7298C174.606 95.1274 173.973 94.1024 173.665 92.6549L173.111 90.0556C172.802 88.608 172.963 87.4194 173.593 86.4898C174.222 85.5496 175.212 84.9354 176.564 84.6471C177.896 84.3634 178.999 84.5148 179.875 85.1013C180.762 85.6855 181.342 86.6169 181.614 87.8954L181.634 87.9905L179.939 88.3519L179.908 88.2093C179.748 87.4591 179.412 86.8902 178.898 86.5025C178.395 86.1126 177.727 86.0066 176.892 86.1845C176.047 86.3646 175.441 86.7643 175.076 87.3833C174.709 87.9918 174.622 88.7504 174.816 89.6591L175.383 92.3218C175.575 93.2199 175.963 93.8771 176.549 94.2935C177.135 94.7099 177.85 94.8281 178.696 94.6479C179.53 94.47 180.098 94.1006 180.398 93.5395C180.706 92.9657 180.782 92.3089 180.624 91.5693L180.567 91.2999L182.263 90.9384L182.31 91.1603C182.582 92.4388 182.433 93.5256 181.862 94.4206C181.301 95.3133 180.355 95.9016 179.023 96.1853ZM186.317 94.4963L184.855 83.2474L186.59 83.0217L188.053 94.2706L186.317 94.4963ZM195.959 93.9098C194.567 93.9784 193.442 93.6444 192.584 92.9079C191.725 92.1606 191.259 91.0479 191.186 89.5696L191.055 86.9152C190.983 85.4369 191.337 84.2891 192.119 83.4718C192.9 82.6437 193.987 82.1954 195.379 82.1268C196.771 82.0583 197.896 82.3976 198.755 83.1449C199.624 83.8809 200.095 84.988 200.168 86.4663L200.299 89.1207C200.371 90.5989 200.012 91.7524 199.22 92.581C198.438 93.3983 197.351 93.8412 195.959 93.9098ZM195.882 92.3398C196.777 92.2957 197.455 92.0027 197.915 91.4609C198.375 90.9082 198.582 90.1787 198.538 89.2723L198.4 86.4884C198.356 85.582 198.078 84.8818 197.567 84.3878C197.055 83.883 196.352 83.6527 195.456 83.6968C194.582 83.7399 193.91 84.038 193.44 84.5912C192.969 85.1336 192.756 85.8579 192.8 86.7643L192.937 89.5482C192.982 90.4546 193.266 91.1599 193.788 91.6642C194.31 92.1577 195.008 92.3829 195.882 92.3398ZM203.87 93.4236L204.564 82.1013L207.929 82.3077L210.379 92.654L210.637 92.6699L211.261 82.5122L212.991 82.6184L212.297 93.9406L208.932 93.7342L206.483 83.3718L206.225 83.3559L205.6 93.5298L203.87 93.4236ZM215.1 94.1495L220.209 83.5157L223.244 84.0353L224.508 95.7604L222.735 95.4568L222.452 92.6955L218.075 91.9461L216.889 94.4558L215.1 94.1495ZM218.78 90.4227L222.294 91.0244L221.671 84.8675L221.416 84.8238L218.78 90.4227ZM227.269 96.351L230.272 85.4121L231.96 85.8753L229.378 95.2828L234.644 96.7283L234.224 98.2598L227.269 96.351ZM244.175 99.7119C243.806 99.5574 243.508 99.3328 243.28 99.0381C243.062 98.7476 242.926 98.4153 242.872 98.0412C242.818 97.6671 242.869 97.2958 243.023 96.9271C243.182 96.5485 243.407 96.2503 243.697 96.0323C243.992 95.8045 244.324 95.6685 244.694 95.6244C245.074 95.5845 245.448 95.6418 245.817 95.7964C246.195 95.9551 246.499 96.1818 246.726 96.4765C246.958 96.7612 247.097 97.0885 247.141 97.4584C247.185 97.8283 247.127 98.2026 246.969 98.5812C246.81 98.9598 246.578 99.261 246.274 99.4847C245.983 99.7026 245.648 99.8315 245.268 99.8714C244.898 99.9155 244.534 99.8623 244.175 99.7119ZM256.663 108.528C255.529 107.856 254.812 106.999 254.514 105.956C254.23 104.908 254.473 103.734 255.244 102.433L256.648 100.063C257.402 98.789 258.309 98.0205 259.369 97.7569C260.439 97.4987 261.54 97.7055 262.674 98.3771C263.818 99.0542 264.529 99.921 264.807 100.977C265.095 102.039 264.862 103.207 264.107 104.48L262.704 106.851C261.933 108.152 261.016 108.927 259.952 109.176C258.903 109.421 257.806 109.205 256.663 108.528ZM257.439 107.217C258.211 107.674 258.912 107.794 259.542 107.578C260.178 107.352 260.733 106.839 261.207 106.039L262.693 103.53C263.166 102.73 263.33 101.998 263.183 101.334C263.042 100.66 262.614 100.112 261.898 99.6878C261.173 99.2584 260.483 99.1512 259.829 99.3662C259.18 99.5718 258.624 100.065 258.161 100.846L256.675 103.356C256.191 104.174 256.005 104.911 256.118 105.568C256.246 106.222 256.686 106.771 257.439 107.217ZM263.967 112.854L264.208 112.528C264.451 112.197 264.679 111.942 264.891 111.763C265.109 111.575 265.41 111.394 265.793 111.22L273.33 107.811L273.455 107.642L268.324 103.868L269.227 102.641L275.78 107.461L274.589 109.08L266.624 112.716C266.379 112.831 266.177 112.95 266.018 113.075C265.866 113.191 265.706 113.362 265.54 113.588L265.338 113.862L263.967 112.854ZM275.119 121.697L276.22 120.599L277.296 121.677L283.125 115.865L282.049 114.786L283.151 113.687L286.355 116.9C287.423 117.971 287.968 119.061 287.989 120.168C288.018 121.284 287.485 122.387 286.392 123.478L284.888 124.977C283.794 126.068 282.69 126.597 281.575 126.565C280.475 126.533 279.391 125.981 278.323 124.91L275.119 121.697ZM278.566 122.905L279.459 123.8C280.153 124.497 280.844 124.837 281.531 124.823C282.219 124.809 282.911 124.455 283.607 123.76L285.19 122.181C285.894 121.479 286.25 120.789 286.259 120.109C286.267 119.429 285.925 118.741 285.23 118.045L284.338 117.15L278.566 122.905ZM283.867 130.604L292.515 123.263L293.647 124.597L284.999 131.938L283.867 130.604ZM286.802 134.102L297.893 130.082L299.697 132.577L292.394 141.837L291.34 140.379L293.07 138.209L290.469 134.611L287.865 135.573L286.802 134.102ZM292.038 134.016L294.127 136.905L297.991 132.071L297.839 131.861L292.038 134.016ZM295.665 147.638C295.24 146.898 294.994 146.168 294.927 145.445C294.861 144.723 294.986 144.053 295.303 143.434C295.635 142.82 296.166 142.302 296.896 141.882L297.247 141.68L298.112 143.183L297.761 143.385C297.068 143.783 296.667 144.289 296.558 144.9C296.454 145.521 296.601 146.177 297 146.87C297.404 147.573 297.853 148.018 298.348 148.207C298.853 148.39 299.339 148.347 299.807 148.078C300.116 147.9 300.321 147.67 300.42 147.389C300.52 147.107 300.537 146.779 300.472 146.406C300.415 146.027 300.315 145.592 300.17 145.102L299.998 144.51C299.786 143.796 299.654 143.143 299.6 142.551C299.56 141.963 299.651 141.437 299.87 140.974C300.09 140.512 300.485 140.116 301.057 139.787C301.637 139.453 302.214 139.308 302.788 139.352C303.367 139.405 303.914 139.62 304.43 139.996C304.946 140.372 305.4 140.902 305.794 141.586C306.187 142.269 306.42 142.945 306.493 143.614C306.572 144.292 306.47 144.917 306.189 145.49C305.908 146.063 305.421 146.549 304.728 146.948L304.223 147.239L303.358 145.736L303.864 145.445C304.285 145.202 304.575 144.917 304.735 144.588C304.901 144.269 304.955 143.919 304.899 143.54C304.843 143.161 304.696 142.766 304.459 142.354C304.114 141.754 303.719 141.359 303.272 141.167C302.84 140.98 302.404 141.012 301.964 141.266C301.664 141.438 301.456 141.651 301.34 141.905C301.239 142.162 301.209 142.467 301.249 142.818C301.289 143.169 301.383 143.582 301.532 144.057L301.704 144.649C301.93 145.367 302.071 146.034 302.126 146.65C302.191 147.261 302.117 147.814 301.904 148.311C301.691 148.807 301.29 149.225 300.7 149.565C300.11 149.904 299.509 150.051 298.896 150.004C298.289 149.967 297.703 149.75 297.138 149.352C296.582 148.949 296.091 148.378 295.665 147.638ZM301.516 158.448L302.97 157.894L303.512 159.318L311.204 156.385L310.662 154.962L312.115 154.408L313.732 158.647C314.27 160.061 314.324 161.277 313.892 162.298C313.464 163.328 312.528 164.118 311.084 164.669L309.101 165.425C307.657 165.975 306.433 166.008 305.427 165.524C304.436 165.047 303.671 164.101 303.132 162.688L301.516 158.448ZM304.172 160.956L304.622 162.138C304.972 163.056 305.464 163.649 306.098 163.916C306.731 164.183 307.508 164.142 308.426 163.792L310.516 162.995C311.444 162.641 312.051 162.155 312.336 161.538C312.621 160.921 312.589 160.153 312.238 159.234L311.788 158.053L304.172 160.956ZM305.847 170.154L316.808 167.233L318.649 174.138L317.114 174.547L315.724 169.333L312.577 170.172L313.85 174.947L312.315 175.356L311.042 170.581L307.833 171.436L309.243 176.729L307.709 177.138L305.847 170.154ZM309.533 189.453C309.446 188.648 309.541 187.909 309.817 187.239C310.103 186.567 310.565 186.012 311.203 185.575C311.841 185.137 312.648 184.866 313.626 184.761L316.268 184.477C317.74 184.32 318.905 184.602 319.765 185.325C320.636 186.047 321.145 187.095 321.292 188.47C321.437 189.823 321.178 190.905 320.515 191.715C319.863 192.524 318.92 192.994 317.684 193.127L317.604 193.135L317.419 191.411L317.548 191.397C318.01 191.348 318.413 191.212 318.759 190.99C319.115 190.767 319.381 190.462 319.557 190.074C319.733 189.685 319.79 189.207 319.729 188.637C319.637 187.778 319.302 187.135 318.724 186.708C318.156 186.28 317.411 186.115 316.487 186.214L313.78 186.504C312.867 186.602 312.168 186.922 311.682 187.463C311.208 188.002 311.017 188.707 311.111 189.577C311.203 190.437 311.506 191.04 312.022 191.387C312.537 191.733 313.17 191.867 313.922 191.786L314.132 191.763L313.807 188.734L315.306 188.574L315.815 193.327L310.24 193.925L310.067 192.313L311.211 192.191L311.184 191.933C310.969 191.858 310.744 191.735 310.509 191.565C310.274 191.406 310.068 191.156 309.891 190.816C309.714 190.488 309.595 190.033 309.533 189.453ZM310.492 196.612L321.838 199.844L321.841 202.923L310.5 206.157L310.498 204.358L313.171 203.611L313.168 199.17L310.493 198.427L310.492 196.612ZM314.789 199.607L314.792 203.172L320.754 201.514L320.754 201.255L314.789 199.607ZM310.375 208.978L321.655 210.181L321.15 214.918C321.075 215.617 320.886 216.216 320.583 216.716C320.289 217.228 319.902 217.605 319.419 217.847C318.936 218.099 318.383 218.192 317.76 218.126L317.583 218.107C316.874 218.031 316.323 217.799 315.93 217.409C315.546 217.031 315.294 216.592 315.174 216.09L314.916 216.062C314.851 216.468 314.677 216.781 314.392 217.001C314.119 217.221 313.746 217.307 313.273 217.256L309.535 216.857L309.722 215.101L313.219 215.474C313.509 215.505 313.748 215.454 313.936 215.322C314.124 215.19 314.236 214.958 314.271 214.625L314.637 211.192L310.19 210.718L310.375 208.978ZM316.216 211.361L315.917 214.165C315.851 214.788 315.955 215.288 316.23 215.665C316.515 216.043 316.932 216.261 317.48 216.32L317.609 216.333C318.157 216.392 318.605 216.266 318.953 215.955C319.311 215.657 319.524 215.19 319.591 214.557L319.89 211.753L316.216 211.361ZM309.206 219.599L319.61 225.161L318.961 228.17L307.192 228.929L307.572 227.171L310.343 227.006L311.28 222.666L308.823 221.373L309.206 219.599ZM312.771 223.436L312.019 226.92L318.197 226.563L318.252 226.31L312.771 223.436ZM306.471 231.658L317.233 235.246L316.167 238.443L305.538 238.146L305.456 238.391L315.111 241.61L314.562 243.255L303.801 239.667L304.867 236.47L315.511 236.773L315.593 236.527L305.923 233.303L306.471 231.658ZM301.408 245.551L310.286 249.595L311.73 246.424L313.175 247.082L309.561 255.016L308.116 254.358L309.56 251.187L300.682 247.144L301.408 245.551ZM297.967 252.892L307.909 258.354L307.066 259.888L297.124 254.426L297.967 252.892ZM295.746 256.881L303.469 265.8L301.784 268.377L290.524 264.872L291.508 263.366L294.154 264.204L296.583 260.487L294.753 258.401L295.746 256.881ZM297.701 261.74L295.75 264.725L301.647 266.603L301.788 266.386L297.701 261.74ZM285.662 271.276L294.297 278.631L293.163 279.963L284.527 272.608L285.662 271.276ZM282.083 275.329L290.096 283.359L287.71 285.74L278.342 280.711L278.159 280.894L285.347 288.098L284.12 289.323L276.107 281.293L278.493 278.912L287.872 283.953L288.056 283.769L280.856 276.554L282.083 275.329ZM270.001 286.232C271.081 285.368 272.18 284.987 273.299 285.089C274.424 285.199 275.449 285.832 276.373 286.987L278.033 289.063C278.958 290.219 279.346 291.354 279.199 292.467C279.059 293.589 278.449 294.582 277.369 295.446C276.306 296.296 275.251 296.655 274.205 296.523C273.151 296.398 272.215 295.825 271.399 294.804L271.338 294.728L272.692 293.645L272.783 293.759C273.262 294.358 273.818 294.716 274.451 294.833C275.075 294.956 275.721 294.751 276.387 294.218C277.062 293.678 277.424 293.05 277.473 292.333C277.529 291.624 277.267 290.907 276.687 290.181L274.986 288.055C274.413 287.338 273.771 286.925 273.061 286.815C272.35 286.705 271.658 286.92 270.983 287.46C270.316 287.993 269.974 288.577 269.957 289.213C269.939 289.865 270.166 290.486 270.638 291.076L270.81 291.291L269.456 292.374L269.314 292.197C268.498 291.176 268.144 290.138 268.254 289.081C268.356 288.032 268.938 287.082 270.001 286.232ZM260.501 293.078C261.677 292.33 262.82 292.064 263.931 292.28C265.047 292.505 266.002 293.242 266.796 294.491L268.222 296.733C269.016 297.982 269.276 299.155 269 300.252C268.731 301.358 268.008 302.285 266.832 303.033C265.656 303.781 264.51 304.042 263.394 303.817C262.275 303.607 261.318 302.878 260.524 301.629L259.098 299.386C258.303 298.138 258.046 296.957 258.324 295.845C258.6 294.748 259.325 293.826 260.501 293.078ZM261.345 294.404C260.588 294.886 260.144 295.475 260.012 296.174C259.886 296.881 260.066 297.618 260.553 298.384L262.049 300.736C262.536 301.502 263.124 301.973 263.812 302.15C264.506 302.335 265.232 302.188 265.989 301.707C266.727 301.237 267.164 300.645 267.299 299.932C267.44 299.228 267.267 298.493 266.78 297.727L265.285 295.375C264.798 294.609 264.202 294.136 263.499 293.956C262.801 293.786 262.083 293.935 261.345 294.404ZM253.867 297.41L258.856 307.598L255.828 309.08L248.588 301.294L248.355 301.408L252.83 310.548L251.273 311.311L246.285 301.123L249.312 299.641L256.56 307.441L256.792 307.327L252.31 298.173L253.867 297.41ZM243.346 302.464L243.865 303.931L242.429 304.439L245.174 312.2L246.61 311.692L247.129 313.158L242.851 314.672C241.426 315.176 240.208 315.2 239.198 314.743C238.179 314.29 237.411 313.336 236.896 311.879L236.188 309.878C235.673 308.421 235.669 307.197 236.177 306.203C236.679 305.224 237.643 304.482 239.069 303.977L243.346 302.464ZM240.775 305.058L239.583 305.48C238.656 305.808 238.051 306.285 237.769 306.912C237.487 307.539 237.509 308.316 237.837 309.243L238.583 311.351C238.914 312.288 239.385 312.907 239.995 313.207C240.606 313.506 241.374 313.492 242.301 313.164L243.493 312.743L240.775 305.058ZM231.546 306.539L234.469 317.499L232.778 317.95L229.855 306.99L231.546 306.539ZM222.113 308.377C223.473 308.128 224.622 308.313 225.559 308.932C226.498 309.562 227.101 310.605 227.367 312.061L227.846 314.675C228.113 316.131 227.918 317.314 227.261 318.225C226.606 319.147 225.598 319.732 224.238 319.981C222.899 320.227 221.8 320.044 220.941 319.432C220.072 318.822 219.519 317.875 219.284 316.589L219.266 316.493L220.972 316.181L220.998 316.324C221.137 317.079 221.457 317.657 221.959 318.06C222.45 318.464 223.115 318.589 223.955 318.435C224.805 318.28 225.422 317.898 225.804 317.289C226.189 316.692 226.298 315.936 226.131 315.022L225.64 312.344C225.475 311.441 225.105 310.773 224.532 310.34C223.958 309.906 223.246 309.768 222.396 309.923C221.557 310.077 220.979 310.43 220.663 310.982C220.338 311.547 220.243 312.201 220.379 312.945L220.429 313.216L218.724 313.528L218.683 313.305C218.447 312.019 218.628 310.937 219.225 310.059C219.811 309.183 220.774 308.622 222.113 308.377ZM214.775 309.857L215.937 321.141L214.196 321.32L213.034 310.037L214.775 309.857ZM205.122 310.187C206.516 310.155 207.631 310.519 208.47 311.278C209.309 312.048 209.745 313.173 209.778 314.652L209.839 317.309C209.872 318.789 209.487 319.927 208.684 320.723C207.881 321.53 206.783 321.95 205.39 321.981C203.996 322.013 202.88 321.644 202.042 320.874C201.192 320.115 200.751 318.996 200.717 317.516L200.657 314.859C200.624 313.38 201.014 312.236 201.828 311.429C202.631 310.633 203.729 310.219 205.122 310.187ZM205.158 311.758C204.261 311.779 203.576 312.054 203.102 312.583C202.628 313.123 202.401 313.847 202.422 314.754L202.485 317.541C202.505 318.448 202.765 319.156 203.262 319.663C203.76 320.181 204.458 320.43 205.354 320.41C206.229 320.39 206.909 320.11 207.394 319.569C207.879 319.04 208.111 318.321 208.09 317.414L208.027 314.627C208.007 313.72 207.742 313.007 207.233 312.489C206.724 311.982 206.033 311.739 205.158 311.758ZM197.204 310.464L196.22 321.765L192.862 321.473L190.677 311.067L190.419 311.045L189.537 321.183L187.809 321.033L188.793 309.732L192.151 310.024L194.334 320.446L194.593 320.468L195.476 310.314L197.204 310.464ZM185.997 309.452L180.614 319.95L177.594 319.351L176.634 307.598L178.398 307.947L178.61 310.715L182.966 311.577L184.216 309.099L185.997 309.452ZM182.222 313.082L178.724 312.389L179.187 318.56L179.442 318.611L182.222 313.082ZM173.89 306.93L170.557 317.773L168.884 317.259L171.75 307.934L166.53 306.33L166.997 304.812L173.89 306.93ZM161.756 305.083C162.128 305.227 162.433 305.444 162.668 305.732C162.894 306.017 163.039 306.345 163.103 306.718C163.167 307.09 163.126 307.463 162.982 307.836C162.833 308.218 162.617 308.523 162.332 308.748C162.044 308.984 161.715 309.129 161.346 309.183C160.968 309.233 160.592 309.185 160.22 309.041C159.837 308.892 159.528 308.674 159.292 308.385C159.052 308.107 158.906 307.783 158.852 307.415C158.798 307.046 158.845 306.67 158.993 306.288C159.142 305.905 159.366 305.598 159.664 305.366C159.949 305.14 160.28 305.002 160.659 304.952C161.028 304.899 161.393 304.942 161.756 305.083Z" fill="black"/>
<circle cx="202" cy="202" r="149.532" stroke="black" stroke-width="0.936709" stroke-dasharray="1.87 1.87"/>
<circle cx="202" cy="202" r="138.532" stroke="black" stroke-width="0.936709"/>
<circle cx="202" cy="202" r="157.532" stroke="black" stroke-width="0.936709" stroke-dasharray="11.24 11.24"/>
<defs>
<linearGradient id="paint0_linear_596_60" x1="202.5" y1="0" x2="202.5" y2="405" gradientUnits="userSpaceOnUse">
<stop stop-color="#FF6A00"/>
<stop offset="0.504808" stop-color="#FAA429"/>
<stop offset="1" stop-color="#FF6A00"/>
</linearGradient>
</defs>
</svg>
