<svg width="179" height="34" viewBox="0 0 179 34" fill="none" xmlns="http://www.w3.org/2000/svg">
<g clip-path="url(#clip0_786_95)">
<path fill-rule="evenodd" clip-rule="evenodd" d="M2.15243 4.25078C1.62658 4.84373 1.28472 5.32999 0.950071 5.96104C0.229453 7.31983 -0.110787 9.00143 0.0319942 10.4987C0.310847 13.4231 1.99022 15.8896 4.57019 17.1638C5.62736 17.686 6.64253 17.9396 7.86324 17.9867C10.0086 18.0693 12.0745 17.3084 13.6554 15.8534L13.9176 15.6119L13.2021 14.8911L12.4866 14.1703L12.2357 14.3919C11.6238 14.9323 10.8215 15.4018 10.1 15.6415C9.41101 15.8704 8.98014 15.9343 8.13248 15.9333C7.48331 15.9326 7.27521 15.9168 6.94437 15.8432C5.0047 15.4119 3.47582 14.2152 2.64589 12.4784C1.55806 10.202 1.95344 7.47217 3.63463 5.65121L3.81962 5.4509L3.09722 4.72545L2.37482 4L2.15243 4.25078ZM24.2042 5.90849C23.9973 6.0033 23.7553 6.26904 23.6823 6.48169C23.5399 6.8968 23.6636 7.44262 23.9595 7.70394C24.1022 7.8301 24.4422 7.9563 24.6391 7.9563C24.8361 7.9563 25.1761 7.8301 25.3188 7.70394C25.6147 7.44262 25.7384 6.8968 25.596 6.48169C25.523 6.26904 25.281 6.0033 25.0741 5.90849C24.8527 5.80704 24.4256 5.80704 24.2042 5.90849ZM38.987 5.93083C38.6384 6.09416 38.438 6.43397 38.4345 6.86784C38.432 7.17296 38.5018 7.38331 38.6716 7.58295C38.8873 7.83652 39.1008 7.93292 39.4475 7.9333C39.7826 7.93363 39.9635 7.86082 40.1874 7.63555C40.584 7.23656 40.5431 6.409 40.1091 6.04902C39.8189 5.80829 39.3532 5.75924 38.987 5.93083ZM44.2732 6.22349C43.9007 6.30276 43.6223 6.41579 43.3473 6.59947C42.711 7.02442 42.4115 7.68098 42.4099 8.65441L42.4092 9.08161H41.9742H41.5393V9.74847V10.4153H41.9742H42.4092V12.9577V15.5001H43.3619H44.3146V12.9577V10.4153H45.1026H45.8907L45.8793 9.75888L45.8679 9.10245L45.0913 9.09112L44.3146 9.07978L44.3153 8.67433C44.3161 8.17399 44.3986 7.98885 44.6876 7.83869C44.9452 7.70482 45.3668 7.72682 45.7016 7.89166C45.8301 7.95493 45.9387 8.00002 45.943 7.9919C46.0247 7.83656 46.5928 6.6579 46.5928 6.64369C46.5928 6.59368 46.0555 6.35861 45.7703 6.28384C45.3588 6.17594 44.6339 6.14676 44.2732 6.22349ZM16.2719 10.8738V15.5001H17.2246H18.1773V14.5778V13.6556L18.5783 13.2337C18.7989 13.0017 18.9922 12.8064 19.0079 12.7997C19.0236 12.7931 19.3964 13.3979 19.8364 14.1438L20.6363 15.5001H21.7471C22.3581 15.5001 22.858 15.4906 22.858 15.4791C22.858 15.4676 22.3022 14.5627 21.623 13.4682C20.9437 12.3736 20.3755 11.457 20.3604 11.4313C20.3373 11.392 21.4177 10.2107 22.5 9.09203L22.752 8.83154H21.6719H20.5917L19.3845 10.0793L18.1773 11.327V8.78724V6.2475H17.2246H16.2719V10.8738ZM4.23976 7.56307C4.08348 7.64505 4.05382 7.69348 4.05303 7.86803C4.05018 8.50925 5.58175 9.25279 6.03342 8.82942C6.29488 8.58431 5.9727 8.05325 5.37792 7.74883C4.90757 7.50814 4.47807 7.43803 4.23976 7.56307ZM23.6864 12.145V15.5001H24.6391H25.5919V12.145V8.78987H24.6391H23.6864V12.145ZM26.3137 8.8628C26.3264 8.90294 26.8739 10.408 27.5303 12.2075L28.7236 15.4792L29.6767 15.4904L30.6297 15.5016L31.3288 13.3231C31.7132 12.125 32.0398 11.13 32.0545 11.1121C32.0692 11.0942 32.1044 11.1598 32.1328 11.258C32.1612 11.3561 32.4819 12.3508 32.8457 13.4682L33.507 15.5001H34.4529H35.3988L35.4443 15.3854C35.5592 15.0962 37.8113 8.85218 37.8113 8.82292C37.8113 8.80475 37.3941 8.78987 36.8842 8.78987C36.0363 8.78987 35.9553 8.79612 35.9373 8.8628C35.8486 9.19144 34.5198 13.5268 34.5011 13.5488C34.4878 13.5644 34.1624 12.5423 33.7781 11.2773C33.3938 10.0124 33.0636 8.9352 33.0442 8.88364C33.0092 8.79024 33.0052 8.78987 32.0858 8.78987H31.1625L30.4631 11.1343C30.0785 12.4237 29.7513 13.5027 29.7362 13.532C29.721 13.5614 29.3748 12.5064 28.9669 11.1876L28.2251 8.78987H27.2578C26.3553 8.78987 26.292 8.79474 26.3137 8.8628ZM38.5155 12.145V15.5001H39.4475H40.3795V12.145V8.78987H39.4475H38.5155V12.145ZM45.8408 8.8628C45.8616 8.90294 46.4872 10.3842 47.2309 12.1545L48.5831 15.3733L48.4581 15.6224C48.2122 16.1127 47.925 16.3312 47.5248 16.3325C47.2503 16.3334 47.057 16.2756 46.8368 16.1268C46.7369 16.0593 46.6422 16.0173 46.6264 16.0334C46.6105 16.0495 46.428 16.3534 46.2208 16.7087L45.844 17.3547L45.9595 17.4501C46.1607 17.6161 46.7271 17.875 47.0277 17.9383C47.6311 18.0653 48.3008 17.9937 48.8191 17.7468C49.1745 17.5775 49.6582 17.0968 49.8636 16.7087C49.9424 16.5597 50.6804 14.7217 51.5035 12.6243L53 8.81071L52.0685 8.79949C51.5562 8.79333 51.1283 8.79699 51.1177 8.80766C51.1071 8.81833 50.7546 9.83616 50.3342 11.0695C49.9139 12.3028 49.5565 13.3257 49.5401 13.3426C49.5236 13.3595 49.1196 12.342 48.6422 11.0815L47.7743 8.78987H46.7886C45.863 8.78987 45.8052 8.79433 45.8408 8.8628ZM4.52471 9.80773C3.6162 10.0162 3.32947 10.6406 4.03468 10.8748C4.27468 10.9545 4.97447 10.9072 5.27436 10.791C5.72362 10.617 5.96516 10.2877 5.83 10.0335C5.71128 9.81036 5.02832 9.6922 4.52471 9.80773ZM6.01909 11.3903C5.71153 11.4873 5.37398 11.7498 5.12069 12.0889C4.91337 12.3666 4.83409 12.5569 4.82966 12.7873C4.82671 12.9402 4.84602 12.9885 4.94398 13.0733C5.04319 13.1592 5.09003 13.1714 5.24031 13.1507C5.68067 13.09 6.26505 12.6093 6.49619 12.1177C6.67376 11.74 6.6497 11.4803 6.42767 11.3785C6.30295 11.3213 6.23133 11.3234 6.01909 11.3903ZM9.12806 11.9313C8.83317 12.228 9.05839 13.109 9.56154 13.627C9.91673 13.9928 10.2318 14.0401 10.3778 13.7496C10.5965 13.3146 10.1815 12.2912 9.64852 11.9511C9.42037 11.8055 9.25916 11.7994 9.12806 11.9313ZM7.53186 12.1762C7.01239 12.533 6.85449 13.9011 7.2902 14.27C7.43593 14.3933 7.45523 14.3955 7.6384 14.308C7.80893 14.2266 8.00784 13.9344 8.10303 13.6254C8.20509 13.294 8.20157 12.5728 8.09686 12.3742C7.94094 12.0784 7.76436 12.0165 7.53186 12.1762Z" fill="white"/>
</g>
<g clip-path="url(#clip1_786_95)">
<path fill-rule="evenodd" clip-rule="evenodd" d="M63.7619 4.00819C63.7255 4.01651 63.6139 4.03981 63.5139 4.0599C63.2958 4.10375 62.9818 4.24125 62.7637 4.38836C62.5808 4.51171 59.8434 7.22243 59.8434 7.28016C59.8434 7.30613 59.9783 7.32391 60.265 7.33574C60.7128 7.35421 60.9023 7.40166 61.2419 7.5803C61.3665 7.64582 61.7435 7.99688 62.6045 8.84899C63.2593 9.49696 63.8318 10.0516 63.8767 10.0815C63.9775 10.1485 64.149 10.1515 64.2678 10.0885C64.3169 10.0624 64.8556 9.54078 65.4649 8.92933C66.5475 7.84277 66.7988 7.62206 67.1008 7.49273C67.3094 7.40338 67.7051 7.32711 67.9601 7.32711C68.0791 7.32711 68.1764 7.31555 68.1764 7.30144C68.1764 7.25217 65.3809 4.4942 65.2241 4.38876C65.0248 4.25473 64.7482 4.12761 64.5278 4.06866C64.3467 4.02021 63.8727 3.98281 63.7619 4.00819ZM58.3344 8.75627C57.4595 9.63835 57.3248 9.79733 57.1754 10.1233C57.0404 10.418 57.0004 10.6219 57 11.0181C56.9997 11.321 57.0145 11.4349 57.0814 11.6459C57.2308 12.1166 57.3396 12.258 58.3026 13.2332L59.1922 14.1342H59.7613C60.3992 14.1342 60.5873 14.1082 60.8806 13.9792C61.062 13.8995 61.2147 13.76 62.3235 12.6622C63.4234 11.5731 63.5819 11.4282 63.7265 11.3799C63.9518 11.3046 64.2321 11.3108 64.4633 11.396C64.6402 11.4612 64.7449 11.556 65.8451 12.6465C66.4999 13.2954 67.0834 13.8591 67.1418 13.899C67.3823 14.0636 67.5936 14.1083 68.2095 14.125L68.7882 14.1407L69.6504 13.27C70.1246 12.7912 70.5613 12.3278 70.6207 12.2404C70.8777 11.8617 71 11.4657 71 11.0115C71 10.5574 70.8777 10.1613 70.6207 9.78273C70.5613 9.69526 70.1255 9.23337 69.6523 8.75627L68.792 7.88886L68.3437 7.88913C68.0971 7.88926 67.7999 7.90482 67.6832 7.92376C67.2451 7.99477 67.2091 8.02305 65.8932 9.32946C64.5407 10.6722 64.5086 10.6967 64.1067 10.6973C63.6653 10.698 63.6978 10.7222 62.34 9.37503C60.8006 7.84766 60.8712 7.88886 59.7932 7.88886H59.1948L58.3344 8.75627ZM63.8767 11.9416C63.8318 11.9715 63.2593 12.5263 62.6045 13.1745C61.3039 14.4622 61.2532 14.502 60.7496 14.6307C60.5802 14.674 60.3846 14.696 60.1688 14.696C59.9218 14.696 59.8434 14.7064 59.8434 14.7395C59.8434 14.7634 60.4796 15.4139 61.257 16.1851C62.7846 17.7003 62.8563 17.7594 63.3585 17.9186C63.5697 17.9856 63.6837 18.0003 63.9868 18C64.4935 17.9995 64.8297 17.9 65.2241 17.634C65.382 17.5275 68.1764 14.7712 68.1764 14.722C68.1764 14.7077 68.0759 14.6957 67.9532 14.6954C67.6269 14.6946 67.3045 14.6163 66.986 14.4607C66.7138 14.3277 66.6673 14.2861 65.5145 13.1423C64.8597 12.4927 64.2915 11.9445 64.2518 11.9242C64.1472 11.8707 63.9711 11.8788 63.8767 11.9416Z" fill="white"/>
</g>
<g clip-path="url(#clip2_786_95)">
<path fill-rule="evenodd" clip-rule="evenodd" d="M102.661 4.0376C100.06 4.36063 98.2614 5.72987 97.8358 7.7097C97.7502 8.10789 97.7514 8.88715 97.8382 9.21022C98.038 9.95471 98.4701 10.5739 99.1777 11.1299C99.6438 11.496 100.065 11.7511 100.948 12.2016C101.976 12.7265 102.345 12.9807 102.564 13.3161C102.877 13.7963 102.722 14.387 102.192 14.7352C101.932 14.9062 101.683 15.0005 101.261 15.0878C100.977 15.1467 100.849 15.1531 100.264 15.1376C99.119 15.1072 98.3218 14.9149 97.2083 14.4004C97.0117 14.3095 96.8335 14.2352 96.8122 14.2352C96.779 14.2352 96.3243 16.866 96.301 17.1939C96.2941 17.2902 96.3065 17.2999 96.5688 17.4032C97.1457 17.6304 98.2358 17.8621 99.1815 17.9586C99.4084 17.9817 99.9266 18.0003 100.333 18C101.411 17.9991 102.202 17.8828 103.089 17.5947C105.031 16.9641 106.23 15.6464 106.45 13.8979C106.646 12.3506 106.038 11.1926 104.519 10.2214C104.335 10.1038 103.812 9.81714 103.356 9.58453C102.415 9.10464 102.124 8.92874 101.855 8.67848C101.501 8.34881 101.41 8.00356 101.587 7.65427C101.825 7.18541 102.406 6.91502 103.288 6.86314C104.296 6.80383 105.184 6.95763 106.139 7.35714C106.336 7.43935 106.502 7.50138 106.508 7.49502C106.526 7.47824 107.008 4.55723 106.996 4.54698C106.99 4.54224 106.815 4.48333 106.607 4.4161C106.156 4.27041 105.634 4.14531 105.163 4.07013C104.688 3.99437 103.168 3.97459 102.661 4.0376ZM75.0139 4.36229C75.0009 4.43795 74.9962 4.50568 75.0034 4.51282C75.0107 4.51996 75.2558 4.59399 75.5483 4.67735C76.4739 4.94117 77.5725 5.38089 78.3316 5.79135L78.727 6.00509L80.3128 11.8872L81.8987 17.7693L83.8028 17.778L85.707 17.7868L88.5001 11.0311C90.0363 7.31551 91.2929 4.26395 91.2925 4.24984C91.2922 4.23571 90.4391 4.2281 89.3968 4.23293L87.5016 4.24166L85.7889 8.77341C83.8237 13.9729 84.0523 13.3773 84.0302 13.3559C84.0206 13.3466 83.6477 11.5128 83.2014 9.2807C82.4449 5.49709 82.3817 5.20594 82.2678 4.97905C82.1302 4.70495 81.9511 4.53085 81.6778 4.40538C81.2895 4.22715 81.2655 4.22597 78.0339 4.22532L75.0375 4.22475L75.0139 4.36229ZM92.7014 4.26445C92.7014 4.2863 92.2063 7.31544 91.6013 10.9959C90.9962 14.6764 90.5012 17.7175 90.5012 17.7539C90.5012 17.8187 90.5376 17.82 92.2861 17.82H94.071L94.0908 17.727C94.1016 17.6759 94.5974 14.6664 95.1925 11.0393C95.7877 7.4122 96.2835 4.39513 96.2943 4.33466L96.3141 4.22475H94.5077C93.148 4.22475 92.7014 4.23456 92.7014 4.26445ZM112.743 4.27774C112.254 4.38204 111.839 4.68131 111.621 5.08808C111.498 5.31599 106.212 17.7233 106.212 17.7825C106.212 17.8104 106.714 17.8183 108.089 17.8119L109.967 17.8031L110.333 16.8054L110.699 15.8078H112.983H115.266L115.475 16.8054L115.684 17.8031L117.342 17.8119C118.843 17.8198 119 17.8155 119 17.7665C119 17.7367 118.358 14.6845 117.573 10.9837C116.789 7.28287 116.147 4.24815 116.147 4.23987C116.147 4.23155 115.431 4.22597 114.557 4.22742C113.327 4.22952 112.916 4.24092 112.743 4.27774ZM113.57 8.09703C113.547 8.15283 113.414 8.51047 113.275 8.89178C113.136 9.27309 112.736 10.346 112.388 11.276L111.754 12.967L113.199 12.9758C113.994 12.9807 114.649 12.9804 114.654 12.9753C114.664 12.966 113.649 8.095 113.624 8.02939C113.617 8.01079 113.592 8.04123 113.57 8.09703Z" fill="white"/>
</g>
<g clip-path="url(#clip3_786_95)">
<path fill-rule="evenodd" clip-rule="evenodd" d="M130.583 0.216015C130.386 0.41508 130.361 0.490125 130.255 1.1722C130.192 1.57932 130.057 2.43639 129.955 3.07687C129.853 3.71734 129.481 6.09493 129.128 8.3604C128.468 12.597 128.455 12.7374 128.711 12.8369C128.769 12.8596 129.442 12.8781 130.206 12.8781H131.595L131.514 13.3471C131.313 14.5053 131.301 14.4954 132.941 14.4954C134.264 14.4954 134.446 14.4601 134.588 14.1755C134.633 14.0846 134.782 13.2978 134.918 12.4272C135.12 11.1367 135.191 10.8145 135.301 10.6845C135.429 10.5345 135.49 10.5219 136.331 10.4744C137.003 10.4364 137.35 10.3838 137.73 10.2618C139.353 9.74072 140.338 8.42742 140.573 6.46815C140.717 5.26949 140.395 4.39482 139.594 3.80597C139.502 3.73843 139.478 3.59734 139.459 3.01217C139.441 2.48051 139.401 2.21055 139.298 1.94472C138.928 0.987367 138.126 0.403499 136.789 0.119749C136.575 0.0743986 135.378 0.0380403 133.621 0.0234194L130.796 0L130.583 0.216015ZM123.798 16.0654C123.729 16.1166 123.666 16.2934 123.631 16.5345C123.6 16.7473 123.455 17.6639 123.308 18.5712C122.963 20.7137 122.959 20.7443 123.05 20.8012C123.193 20.8906 124.084 20.855 124.182 20.756C124.232 20.7051 124.324 20.3601 124.385 19.9894L124.496 19.3152L125.142 19.2716C125.926 19.2188 126.333 19.06 126.691 18.6673C126.973 18.3578 127.209 17.7102 127.207 17.2543C127.204 16.6917 126.83 16.2064 126.282 16.0548C125.911 15.9524 123.939 15.9608 123.798 16.0654ZM135.904 16.0788C135.765 16.2481 135.074 20.6701 135.171 20.7683C135.273 20.8712 136.218 20.8673 136.319 20.7636C136.367 20.7142 136.44 20.4118 136.481 20.0915C136.522 19.7713 136.58 19.4628 136.61 19.406C136.651 19.3264 136.811 19.2937 137.306 19.2631C138.265 19.204 138.747 18.94 139.085 18.2878C139.236 17.9965 139.257 17.8825 139.257 17.342C139.259 16.6127 139.157 16.4115 138.667 16.1669C138.388 16.0279 138.268 16.0141 137.177 15.9947C136.143 15.9764 135.979 15.9872 135.904 16.0788ZM143.841 16.0663C143.803 16.1119 143.669 16.8179 143.543 17.6351C143.416 18.4524 143.256 19.4673 143.187 19.8906C143.093 20.4662 143.08 20.6821 143.133 20.7478C143.182 20.8072 143.358 20.8355 143.678 20.8355C144.109 20.8355 144.157 20.8224 144.211 20.6899C144.273 20.5371 144.917 16.4402 144.916 16.2006C144.916 16.1243 144.87 16.0443 144.815 16.0227C144.624 15.9485 143.911 15.9804 143.841 16.0663ZM144.995 16.3878C145.01 16.4323 145.077 16.477 145.144 16.4871C145.25 16.503 145.264 16.5502 145.245 16.8268C145.225 17.1169 145.236 17.1479 145.357 17.1479C145.475 17.1479 145.491 17.1097 145.491 16.8244C145.491 16.58 145.515 16.501 145.587 16.501C145.64 16.501 145.683 16.4573 145.683 16.4039C145.683 16.3293 145.601 16.3069 145.326 16.3069C145.069 16.3069 144.976 16.3295 144.995 16.3878ZM145.76 16.7436C145.778 17.1726 145.871 17.3057 145.942 17.0062L145.978 16.8568L146.016 17.0024C146.074 17.2237 146.254 17.1837 146.306 16.9377L146.35 16.7274L146.384 16.9402C146.443 17.3112 146.545 17.2003 146.565 16.7436C146.582 16.3463 146.572 16.3069 146.458 16.3069C146.368 16.3069 146.307 16.3835 146.241 16.5818L146.148 16.8568L146.065 16.5818C146.006 16.3852 145.948 16.3069 145.862 16.3069C145.753 16.3069 145.743 16.3519 145.76 16.7436ZM124.854 17.1317C124.77 17.2933 124.64 18.1112 124.685 18.1855C124.788 18.3547 125.485 18.1852 125.671 17.9457C125.803 17.7768 125.847 17.3841 125.752 17.2329C125.616 17.017 124.951 16.9421 124.854 17.1317ZM137.014 17.0639C136.934 17.1223 136.777 18.0973 136.833 18.1885C136.879 18.2653 136.976 18.2631 137.374 18.1766C137.635 18.1199 137.727 18.0641 137.825 17.9017C138.093 17.4559 137.919 17.1002 137.405 17.046C137.229 17.0275 137.053 17.0355 137.014 17.0639ZM127.925 17.7033C127.463 17.936 127.11 18.3636 126.952 18.8786C126.799 19.3818 126.795 19.5446 126.924 19.9863C127.178 20.8511 128.096 21.1973 128.983 20.7628C129.237 20.6383 129.268 20.6355 129.338 20.7313C129.395 20.8101 129.53 20.8378 129.883 20.843C130.141 20.8468 130.38 20.8213 130.415 20.7863C130.498 20.7026 130.944 17.8317 130.894 17.7014C130.838 17.5536 129.861 17.5553 129.779 17.7033C129.729 17.7948 129.699 17.7913 129.504 17.6712C129.167 17.463 128.369 17.4792 127.925 17.7033ZM131.44 17.5896C131.358 17.6013 131.278 17.6481 131.26 17.6937C131.237 17.7552 131.828 19.6502 132.11 20.4194C132.124 20.4574 131.947 20.7573 131.718 21.086C131.478 21.4288 131.3 21.751 131.3 21.8418C131.3 21.997 131.31 22 131.832 22C132.303 22 132.379 21.9832 132.494 21.8544C132.566 21.7743 133.136 20.9519 133.761 20.0268C134.387 19.1017 134.98 18.2373 135.081 18.106C135.419 17.6626 135.288 17.5333 134.56 17.5935L134.08 17.6331L133.615 18.3124C132.933 19.3059 132.92 19.3231 132.915 19.216C132.907 19.0191 132.502 17.7588 132.42 17.6736C132.338 17.5889 131.779 17.541 131.44 17.5896ZM140.121 17.6705C139.478 17.9645 139.038 18.6208 138.985 19.3639C138.945 19.9241 139.079 20.3001 139.426 20.6007C139.894 21.0066 140.473 21.0608 141.082 20.7559C141.372 20.6107 141.393 20.6083 141.422 20.7181C141.448 20.8191 141.523 20.8355 141.961 20.8355C142.291 20.8355 142.494 20.807 142.537 20.7546C142.621 20.6514 143.068 17.8212 143.02 17.6952C142.969 17.56 142.024 17.5606 141.913 17.6959C141.845 17.7789 141.803 17.7748 141.588 17.6635C141.245 17.4864 140.516 17.4898 140.121 17.6705ZM128.471 18.608C128.283 18.7117 128.04 19.1281 128.04 19.3482C128.04 19.6038 128.221 19.8562 128.452 19.9207C128.919 20.0511 129.384 19.7985 129.519 19.3411C129.664 18.8511 129.422 18.5048 128.938 18.5091C128.778 18.5105 128.568 18.555 128.471 18.608ZM140.544 18.6416C140.223 18.8974 140.091 19.3712 140.254 19.6807C140.412 19.978 140.966 20.0465 141.323 19.8127C141.677 19.5812 141.774 18.9443 141.499 18.6653C141.29 18.4536 140.796 18.4414 140.544 18.6416Z" fill="white"/>
</g>
<g clip-path="url(#clip4_786_95)">
<path fill-rule="evenodd" clip-rule="evenodd" d="M158.616 0.0140748C156.096 0.224911 153.843 1.46521 152.323 3.4791C150.923 5.33472 150.328 7.67161 150.662 10.0058C150.88 11.5226 151.512 12.9824 152.473 14.184C152.683 14.4462 152.812 14.5913 153.06 14.8459C154.025 15.8339 155.186 16.5689 156.483 17.0126C157.158 17.2434 157.805 17.3791 158.59 17.4547C158.864 17.481 159.836 17.4769 160.121 17.4482C161.271 17.3322 162.278 17.0427 163.265 16.5445C163.7 16.3255 164.166 16.0366 164.55 15.7498C164.641 15.6817 164.717 15.6259 164.72 15.6259C164.722 15.6259 164.798 15.6814 164.888 15.7493C166.048 16.6184 167.422 17.186 168.866 17.3932C169.338 17.4608 169.5 17.4709 170.12 17.471C170.726 17.471 170.867 17.4628 171.329 17.3996C174.843 16.92 177.746 14.3112 178.608 10.8587C178.778 10.1777 178.846 9.63412 178.856 8.87782C178.864 8.20097 178.837 7.81159 178.743 7.25578C178.162 3.84536 175.605 1.08721 172.242 0.246285C171.799 0.135414 171.342 0.0600771 170.866 0.0193477C170.561 -0.00675933 169.658 -0.00636073 169.355 0.0200292C168.068 0.131916 166.822 0.527161 165.709 1.17648C165.479 1.31056 165.057 1.59092 164.86 1.7404L164.719 1.84766L164.539 1.71301C163.243 0.745083 161.71 0.163656 160.076 0.0196949C159.838 -0.00125499 158.845 -0.00507464 158.616 0.0140748ZM177.856 13.8383C177.856 13.8747 177.859 13.8769 177.908 13.8769H177.959V14.0183V14.1598H177.998H178.036V14.0183V13.8769H178.094C178.15 13.8769 178.152 13.8755 178.152 13.8383V13.7997H178.004H177.856V13.8383ZM178.203 13.979V14.1598H178.241H178.28L178.283 14.0473L178.287 13.9348L178.326 14.028C178.362 14.1154 178.367 14.1212 178.404 14.1212C178.442 14.1212 178.447 14.1152 178.484 14.028L178.524 13.9348L178.524 14.0473L178.525 14.1598H178.563H178.602V13.9798V13.7997H178.552H178.503L178.46 13.8994C178.437 13.9542 178.414 14.0035 178.409 14.009C178.405 14.0144 178.38 13.971 178.355 13.9125L178.308 13.8061L178.256 13.8022L178.203 13.7982V13.979ZM176.969 19.2046V19.7997L176.885 19.7196C176.792 19.6306 176.645 19.5505 176.506 19.5133C176.385 19.4809 176.096 19.4819 175.966 19.5152C175.62 19.6033 175.364 19.8088 175.208 20.122C175.056 20.4292 175.034 20.8308 175.153 21.1656C175.286 21.5434 175.61 21.8285 175.994 21.9073C176.123 21.9338 176.363 21.9338 176.484 21.9072C176.629 21.8752 176.775 21.7987 176.879 21.7005L176.969 21.6158V21.746V21.8762H177.226H177.483V20.2429V18.6096H177.226H176.969V19.2046ZM161.909 19.1947V19.5484H161.671H161.433V19.7799V20.0114H161.67H161.907L161.912 20.6769C161.916 21.3264 161.917 21.3448 161.945 21.4389C162.018 21.6793 162.143 21.8107 162.368 21.8868C162.462 21.9182 162.483 21.9203 162.706 21.9202C162.928 21.92 162.951 21.9176 163.057 21.8852C163.185 21.8457 163.336 21.7757 163.345 21.7517C163.351 21.7363 163.231 21.3603 163.21 21.3261C163.202 21.3137 163.177 21.3202 163.104 21.3537C162.827 21.4806 162.572 21.4613 162.482 21.3067C162.429 21.2157 162.423 21.1346 162.423 20.5556V20.0114H162.834H163.246V19.7799V19.5484H162.834H162.423V19.1947V18.8411H162.166H161.909V19.1947ZM152.993 19.504C152.945 19.5146 152.879 19.535 152.846 19.5493C152.762 19.5852 152.634 19.6786 152.579 19.7443L152.533 19.7992L152.533 19.6738L152.533 19.5484H152.269H152.006V20.7123V21.8762H152.269H152.533V21.1773C152.533 20.5205 152.534 20.4724 152.559 20.3779C152.589 20.2591 152.626 20.1918 152.702 20.1183C152.811 20.0131 152.968 19.9631 153.146 19.9766C153.319 19.9896 153.454 20.0787 153.523 20.2254C153.584 20.3566 153.587 20.3959 153.587 21.1592L153.587 21.8762H153.851H154.115L154.115 21.1913C154.115 20.4536 154.119 20.404 154.184 20.262C154.265 20.0847 154.455 19.9728 154.674 19.9728C154.894 19.9728 155.055 20.076 155.129 20.2635C155.176 20.384 155.182 20.4885 155.182 21.1938V21.8762H155.447H155.712L155.706 21.0627C155.701 20.2778 155.7 20.2455 155.673 20.1416C155.559 19.7036 155.208 19.4646 154.713 19.4884C154.628 19.4925 154.524 19.5052 154.481 19.5166C154.303 19.5647 154.137 19.6729 154.022 19.816L153.968 19.8842L153.943 19.8481C153.929 19.8283 153.877 19.7715 153.826 19.722C153.726 19.6236 153.6 19.551 153.465 19.5152C153.355 19.4858 153.101 19.4797 152.993 19.504ZM157.09 19.5023C156.771 19.5632 156.509 19.7385 156.335 20.0078C156.105 20.3621 156.073 20.8722 156.255 21.266C156.395 21.5679 156.63 21.7752 156.957 21.8838C157.06 21.9181 157.079 21.9201 157.298 21.9206C157.525 21.9212 157.532 21.9204 157.64 21.8815C157.768 21.8358 157.907 21.7479 157.984 21.6645L158.037 21.6067V21.7414V21.8762H158.295H158.552V20.7123V19.5484H158.295H158.037V19.6783V19.8082L157.942 19.7187C157.838 19.6223 157.713 19.5523 157.581 19.5165C157.474 19.4877 157.207 19.48 157.09 19.5023ZM159.844 19.5018C159.617 19.5391 159.45 19.6156 159.322 19.7413C159.224 19.8375 159.163 19.9463 159.136 20.0741C159.07 20.3864 159.198 20.6545 159.48 20.7939C159.615 20.8604 159.773 20.9018 160.05 20.9432C160.303 20.9808 160.381 21 160.457 21.0421C160.532 21.0845 160.565 21.1325 160.563 21.2005C160.561 21.3182 160.475 21.3968 160.302 21.4403C160.207 21.4642 160.169 21.4668 159.993 21.4609C159.844 21.4559 159.767 21.4471 159.69 21.4261C159.571 21.3937 159.428 21.3302 159.345 21.273C159.313 21.2511 159.281 21.2331 159.274 21.2331C159.257 21.2331 159.025 21.6179 159.034 21.6319C159.05 21.6572 159.234 21.7614 159.342 21.8056C159.405 21.8316 159.52 21.8682 159.599 21.8869C159.732 21.9188 159.76 21.921 160.037 21.9204C160.317 21.9198 160.34 21.9179 160.461 21.8852C160.708 21.8184 160.893 21.6983 160.998 21.5365C161.07 21.4252 161.098 21.3207 161.098 21.1686C161.098 20.9725 161.048 20.8456 160.925 20.7274C160.777 20.5863 160.594 20.5192 160.179 20.4541C159.786 20.3926 159.7 20.359 159.669 20.2555C159.636 20.1456 159.728 20.0243 159.88 19.9781C159.94 19.9595 159.998 19.9537 160.114 19.9542C160.329 19.9551 160.526 20.0027 160.727 20.102L160.826 20.1507L160.936 19.9439C161.017 19.7923 161.043 19.7328 161.033 19.7209C161.01 19.6927 160.813 19.6035 160.7 19.5695C160.639 19.5516 160.541 19.5275 160.481 19.516C160.333 19.4877 159.978 19.4798 159.844 19.5018ZM164.616 19.4975C164.151 19.5697 163.813 19.889 163.693 20.3691C163.656 20.5179 163.652 20.8656 163.686 21.017C163.791 21.4888 164.111 21.8098 164.571 21.9048C164.751 21.942 165.089 21.9321 165.272 21.8842C165.49 21.8271 165.816 21.6487 165.802 21.5942C165.793 21.5595 165.561 21.2188 165.551 21.2252C165.546 21.2284 165.501 21.2576 165.452 21.2901C165.109 21.5161 164.652 21.5199 164.402 21.299C164.311 21.2186 164.232 21.0815 164.205 20.9534L164.196 20.9116H165.058H165.921L165.922 20.8119C165.925 20.536 165.908 20.3991 165.852 20.2339C165.727 19.869 165.475 19.6226 165.124 19.5225C165.013 19.4909 164.743 19.4777 164.616 19.4975ZM167.349 19.5098C167.296 19.5241 167.222 19.5545 167.184 19.5775C167.121 19.616 167.015 19.7124 166.97 19.7735C166.953 19.7968 166.951 19.7877 166.95 19.6738L166.95 19.5484H166.693H166.436V20.7123V21.8762H166.693H166.95L166.95 21.1913C166.95 20.8147 166.956 20.4679 166.963 20.4207C166.994 20.2026 167.094 20.065 167.265 20.0043C167.35 19.974 167.545 19.9738 167.651 20.0039C167.693 20.016 167.736 20.027 167.747 20.0283C167.769 20.0312 167.924 19.5659 167.907 19.5481C167.881 19.5229 167.732 19.4951 167.593 19.4896C167.472 19.4848 167.428 19.4884 167.349 19.5098ZM169.047 19.5049C168.467 19.602 168.088 20.041 168.06 20.648C168.031 21.2926 168.412 21.792 169.021 21.9076C169.142 21.9307 169.446 21.9343 169.574 21.9143C169.68 21.8975 169.803 21.8585 169.901 21.8102C169.996 21.7637 170.14 21.6685 170.14 21.6522C170.14 21.6435 169.923 21.2662 169.901 21.2356C169.899 21.2334 169.865 21.2529 169.824 21.2788C169.601 21.4217 169.32 21.4767 169.105 21.4197C168.795 21.3376 168.597 21.0589 168.597 20.7058C168.597 20.2845 168.891 19.9742 169.293 19.973C169.457 19.9725 169.672 20.0386 169.816 20.1335C169.854 20.1583 169.889 20.1786 169.894 20.1786C169.904 20.1786 170.14 19.7836 170.14 19.7657C170.14 19.7409 169.901 19.5998 169.794 19.561C169.591 19.4874 169.287 19.4646 169.047 19.5049ZM171.332 19.5036C170.979 19.5705 170.685 19.7951 170.521 20.1234C170.384 20.3966 170.352 20.7528 170.436 21.072C170.536 21.4528 170.819 21.7575 171.181 21.8737C171.326 21.9201 171.414 21.9309 171.602 21.9248C171.754 21.9199 171.795 21.9138 171.888 21.8821C172.012 21.8401 172.155 21.7502 172.234 21.6647L172.287 21.6067V21.7414V21.8762H172.545H172.802V20.7123V19.5484H172.545H172.287V19.6786V19.8089L172.194 19.7203C172.093 19.6245 171.965 19.5528 171.831 19.5165C171.721 19.4868 171.457 19.48 171.332 19.5036ZM174.416 19.4963C174.259 19.5306 174.104 19.624 174.019 19.7357L173.972 19.7965V19.6724V19.5484H173.715H173.458V20.7123V21.8762H173.714H173.971L173.975 21.127C173.98 20.2992 173.977 20.3249 174.065 20.1791C174.148 20.0406 174.276 19.9795 174.48 19.9808C174.58 19.9815 174.675 19.9988 174.761 20.0317C174.775 20.0371 174.799 19.982 174.86 19.7989C174.904 19.6659 174.935 19.5542 174.928 19.5483C174.886 19.5073 174.531 19.4713 174.416 19.4963ZM164.68 19.9604C164.453 20.0069 164.283 20.1704 164.224 20.3975C164.216 20.4292 164.206 20.4652 164.203 20.4776C164.196 20.4988 164.23 20.5001 164.789 20.5001C165.471 20.5001 165.403 20.5177 165.351 20.3546C165.316 20.2459 165.245 20.1315 165.177 20.075C165.051 19.9708 164.853 19.9251 164.68 19.9604ZM157.176 19.9994C157.053 20.0317 156.96 20.0878 156.867 20.1877C156.738 20.3248 156.675 20.4978 156.674 20.7128C156.674 21.0004 156.817 21.2528 157.044 21.3659C157.158 21.4232 157.234 21.4404 157.367 21.4399C157.57 21.4393 157.706 21.3843 157.846 21.2462C158.04 21.0537 158.109 20.7482 158.023 20.4652C157.91 20.0972 157.553 19.9006 157.176 19.9994ZM171.447 19.9932C171.133 20.0691 170.925 20.3536 170.924 20.707C170.924 21.0549 171.115 21.3268 171.426 21.4188C171.519 21.4465 171.717 21.4465 171.811 21.4189C172.198 21.3053 172.402 20.8736 172.268 20.4504C172.209 20.2629 172.092 20.127 171.921 20.044C171.775 19.9733 171.604 19.955 171.447 19.9932ZM176.136 19.9913C175.905 20.0473 175.724 20.2185 175.651 20.4504C175.516 20.8764 175.726 21.3166 176.114 21.4195C176.216 21.4466 176.396 21.4466 176.489 21.4194C176.803 21.3281 176.995 21.0579 176.994 20.707C176.994 20.4336 176.867 20.1922 176.658 20.0663C176.522 19.9846 176.297 19.9523 176.136 19.9913ZM178.206 21.5562C178.061 21.6278 178.039 21.8391 178.165 21.945C178.308 22.0651 178.54 21.9766 178.56 21.7942C178.582 21.6001 178.385 21.4677 178.206 21.5562ZM178.233 21.6184C178.137 21.6766 178.125 21.8088 178.208 21.8846C178.267 21.9395 178.329 21.9508 178.393 21.9186C178.454 21.8876 178.504 21.7984 178.492 21.7411C178.466 21.6187 178.335 21.5563 178.233 21.6184ZM178.229 21.7604C178.229 21.8753 178.229 21.8762 178.261 21.8762C178.289 21.8762 178.293 21.8703 178.294 21.8344L178.294 21.7926L178.329 21.8345C178.353 21.8636 178.375 21.8764 178.4 21.8763L178.436 21.8762L178.402 21.8312C178.374 21.7946 178.372 21.7861 178.389 21.7861C178.415 21.7861 178.435 21.7371 178.422 21.7025C178.409 21.666 178.361 21.6451 178.29 21.6449L178.229 21.6447V21.7604ZM178.293 21.7204C178.293 21.7406 178.301 21.7476 178.325 21.7476C178.342 21.7476 178.36 21.7414 178.365 21.7338C178.375 21.7163 178.372 21.713 178.329 21.7022C178.299 21.6946 178.293 21.6973 178.293 21.7204Z" fill="white"/>
</g>
<path d="M49.4762 32.144C48.9429 32.144 48.4869 32.0533 48.1082 31.872C47.7349 31.6853 47.4309 31.4427 47.1962 31.144C46.9669 30.84 46.7962 30.5147 46.6842 30.168C46.5776 29.816 46.5242 29.4773 46.5242 29.152V28.976C46.5242 28.6187 46.5802 28.264 46.6922 27.912C46.8042 27.56 46.9749 27.24 47.2042 26.952C47.4389 26.664 47.7402 26.432 48.1082 26.256C48.4816 26.08 48.9216 25.992 49.4282 25.992C49.9562 25.992 50.4122 26.0853 50.7962 26.272C51.1802 26.4587 51.4842 26.72 51.7082 27.056C51.9376 27.3867 52.0736 27.7787 52.1162 28.232H51.1482C51.1056 27.9333 51.0042 27.6853 50.8442 27.488C50.6896 27.2853 50.4896 27.1333 50.2442 27.032C50.0042 26.9307 49.7322 26.88 49.4282 26.88C49.1136 26.88 48.8336 26.936 48.5882 27.048C48.3482 27.16 48.1482 27.3147 47.9882 27.512C47.8282 27.7093 47.7056 27.9413 47.6202 28.208C47.5402 28.4693 47.5002 28.7573 47.5002 29.072C47.5002 29.3707 47.5402 29.6533 47.6202 29.92C47.7056 30.1813 47.8309 30.4133 47.9962 30.616C48.1616 30.8187 48.3669 30.976 48.6122 31.088C48.8629 31.2 49.1509 31.256 49.4762 31.256C49.9456 31.256 50.3402 31.1413 50.6602 30.912C50.9802 30.6773 51.1749 30.344 51.2442 29.912H52.2202C52.1669 30.3227 52.0282 30.6987 51.8042 31.04C51.5802 31.376 51.2736 31.6453 50.8842 31.848C50.4949 32.0453 50.0256 32.144 49.4762 32.144ZM55.1952 32.144C54.8166 32.144 54.4832 32.0827 54.1952 31.96C53.9072 31.832 53.6646 31.664 53.4672 31.456C53.2699 31.248 53.1206 31.0133 53.0192 30.752C52.9179 30.4853 52.8672 30.2107 52.8672 29.928V29.768C52.8672 29.4853 52.9179 29.2107 53.0192 28.944C53.1259 28.6773 53.2779 28.44 53.4752 28.232C53.6779 28.0187 53.9232 27.8507 54.2112 27.728C54.4992 27.6053 54.8272 27.544 55.1952 27.544C55.5632 27.544 55.8886 27.6053 56.1712 27.728C56.4592 27.8507 56.7046 28.0187 56.9072 28.232C57.1099 28.44 57.2619 28.6773 57.3632 28.944C57.4699 29.2107 57.5232 29.4853 57.5232 29.768V29.928C57.5232 30.2107 57.4726 30.4853 57.3712 30.752C57.2699 31.0133 57.1206 31.248 56.9232 31.456C56.7259 31.664 56.4832 31.832 56.1952 31.96C55.9072 32.0827 55.5739 32.144 55.1952 32.144ZM55.1952 31.328C55.4886 31.328 55.7392 31.264 55.9472 31.136C56.1552 31.0027 56.3126 30.824 56.4192 30.6C56.5312 30.376 56.5872 30.1253 56.5872 29.848C56.5872 29.5653 56.5312 29.312 56.4192 29.088C56.3072 28.864 56.1472 28.688 55.9392 28.56C55.7312 28.4267 55.4832 28.36 55.1952 28.36C54.9072 28.36 54.6592 28.4267 54.4512 28.56C54.2432 28.688 54.0832 28.864 53.9712 29.088C53.8592 29.312 53.8032 29.5653 53.8032 29.848C53.8032 30.1253 53.8566 30.376 53.9632 30.6C54.0752 30.824 54.2352 31.0027 54.4432 31.136C54.6512 31.264 54.9019 31.328 55.1952 31.328ZM58.5931 32V27.688H59.3371V29.544H59.2491C59.2491 29.1173 59.3025 28.7573 59.4091 28.464C59.5211 28.1707 59.6865 27.9467 59.9051 27.792C60.1291 27.6373 60.4065 27.56 60.7371 27.56H60.7771C61.1131 27.56 61.3905 27.6373 61.6091 27.792C61.8331 27.9467 61.9985 28.1707 62.1051 28.464C62.2171 28.7573 62.2731 29.1173 62.2731 29.544H62.0171C62.0171 29.1173 62.0731 28.7573 62.1851 28.464C62.2971 28.1707 62.4651 27.9467 62.6891 27.792C62.9131 27.6373 63.1905 27.56 63.5211 27.56H63.5611C63.8971 27.56 64.1771 27.6373 64.4011 27.792C64.6251 27.9467 64.7931 28.1707 64.9051 28.464C65.0171 28.7573 65.0731 29.1173 65.0731 29.544V32H64.1371V29.408C64.1371 29.0933 64.0571 28.848 63.8971 28.672C63.7425 28.496 63.5265 28.408 63.2491 28.408C62.9611 28.408 62.7318 28.5013 62.5611 28.688C62.3905 28.8693 62.3051 29.1227 62.3051 29.448V32H61.3611V29.408C61.3611 29.0933 61.2838 28.848 61.1291 28.672C60.9745 28.496 60.7585 28.408 60.4811 28.408C60.1931 28.408 59.9611 28.5013 59.7851 28.688C59.6145 28.8693 59.5291 29.1227 59.5291 29.448V32H58.5931ZM66.3744 33.6V27.688H67.1184V29.552L66.9744 29.544C67.001 29.0907 67.097 28.7173 67.2624 28.424C67.4277 28.1307 67.6464 27.912 67.9184 27.768C68.1904 27.624 68.489 27.552 68.8144 27.552C69.1237 27.552 69.4037 27.6107 69.6544 27.728C69.905 27.84 70.121 27.9973 70.3024 28.2C70.4837 28.4027 70.6197 28.6373 70.7104 28.904C70.8064 29.1707 70.8544 29.4587 70.8544 29.768V29.92C70.8544 30.224 70.8064 30.512 70.7104 30.784C70.6144 31.0507 70.4757 31.2853 70.2944 31.488C70.113 31.6907 69.897 31.8507 69.6464 31.968C69.3957 32.0853 69.1157 32.144 68.8064 32.144C68.4917 32.144 68.1984 32.0773 67.9264 31.944C67.6544 31.8107 67.4304 31.5973 67.2544 31.304C67.0784 31.0107 66.9797 30.6293 66.9584 30.16L67.3104 30.752V33.6H66.3744ZM68.6064 31.336C68.8677 31.336 69.097 31.2747 69.2944 31.152C69.4917 31.024 69.6437 30.848 69.7504 30.624C69.8624 30.3947 69.9184 30.1333 69.9184 29.84C69.9184 29.5467 69.8624 29.288 69.7504 29.064C69.6437 28.84 69.4917 28.6667 69.2944 28.544C69.1024 28.416 68.873 28.352 68.6064 28.352C68.3717 28.352 68.153 28.4053 67.9504 28.512C67.7477 28.6187 67.585 28.7733 67.4624 28.976C67.3397 29.1733 67.2784 29.4133 67.2784 29.696V30.04C67.2784 30.312 67.3397 30.5467 67.4624 30.744C67.5904 30.936 67.7557 31.0827 67.9584 31.184C68.161 31.2853 68.377 31.336 68.6064 31.336ZM71.9291 32V27.688H72.6731V29.488H72.6411C72.6411 28.8693 72.7771 28.408 73.0491 28.104C73.3211 27.7947 73.7237 27.64 74.2571 27.64H74.4091V28.464H74.1211C73.7157 28.464 73.4037 28.5733 73.1851 28.792C72.9717 29.0053 72.8651 29.312 72.8651 29.712V32H71.9291ZM77.8259 32V30.712H77.6739V29.256C77.6739 28.9893 77.6046 28.7867 77.4659 28.648C77.3273 28.5093 77.1219 28.44 76.8499 28.44C76.7006 28.44 76.5353 28.4427 76.3539 28.448C76.1726 28.4533 75.9939 28.4613 75.8179 28.472C75.6473 28.4773 75.4953 28.4853 75.3619 28.496V27.688C75.4793 27.6773 75.6073 27.6693 75.7459 27.664C75.8899 27.6533 76.0366 27.6453 76.1859 27.64C76.3406 27.6347 76.4873 27.632 76.6259 27.632C77.0633 27.632 77.4259 27.688 77.7139 27.8C78.0019 27.912 78.2153 28.0907 78.3539 28.336C78.4979 28.576 78.5699 28.8987 78.5699 29.304V32H77.8259ZM76.4259 32.112C76.1113 32.112 75.8366 32.0587 75.6019 31.952C75.3673 31.84 75.1859 31.68 75.0579 31.472C74.9299 31.2587 74.8659 31.0053 74.8659 30.712C74.8659 30.4027 74.9379 30.1467 75.0819 29.944C75.2313 29.7413 75.4419 29.5893 75.7139 29.488C75.9859 29.3867 76.3113 29.336 76.6899 29.336H77.7699V29.952H76.6659C76.3833 29.952 76.1673 30.0213 76.0179 30.16C75.8686 30.2933 75.7939 30.4693 75.7939 30.688C75.7939 30.9067 75.8686 31.0827 76.0179 31.216C76.1673 31.344 76.3833 31.408 76.6659 31.408C76.8313 31.408 76.9886 31.3787 77.1379 31.32C77.2873 31.256 77.4099 31.152 77.5059 31.008C77.6073 30.864 77.6633 30.6613 77.6739 30.4L77.9139 30.712C77.8873 31.016 77.8126 31.272 77.6899 31.48C77.5726 31.6827 77.4073 31.84 77.1939 31.952C76.9859 32.0587 76.7299 32.112 76.4259 32.112ZM82.5198 32V26.704L82.8718 26.976H81.2718V26.16H83.4638V32H82.5198ZM87.3426 32.144C86.9 32.144 86.5213 32.0693 86.2066 31.92C85.892 31.7653 85.636 31.5573 85.4386 31.296C85.2466 31.0347 85.1053 30.7333 85.0146 30.392C84.924 30.0453 84.8786 29.68 84.8786 29.296V28.856C84.8786 28.3227 84.964 27.84 85.1346 27.408C85.3106 26.976 85.58 26.632 85.9426 26.376C86.3106 26.12 86.7773 25.992 87.3426 25.992C87.9133 25.992 88.3773 26.12 88.7346 26.376C89.0973 26.632 89.3666 26.976 89.5426 27.408C89.7186 27.84 89.8066 28.3227 89.8066 28.856V29.296C89.8066 29.68 89.7613 30.0453 89.6706 30.392C89.58 30.7333 89.436 31.0347 89.2386 31.296C89.0466 31.5573 88.7933 31.7653 88.4786 31.92C88.1693 32.0693 87.7906 32.144 87.3426 32.144ZM87.3426 31.272C87.86 31.272 88.2386 31.0987 88.4786 30.752C88.724 30.4 88.8466 29.8453 88.8466 29.088C88.8466 28.2933 88.7213 27.7253 88.4706 27.384C88.2253 27.0373 87.8493 26.864 87.3426 26.864C86.836 26.864 86.4573 27.0373 86.2066 27.384C85.9613 27.7253 85.8386 28.288 85.8386 29.072C85.8386 29.8347 85.9613 30.392 86.2066 30.744C86.452 31.096 86.8306 31.272 87.3426 31.272ZM93.3426 32.144C92.9 32.144 92.5213 32.0693 92.2066 31.92C91.892 31.7653 91.636 31.5573 91.4386 31.296C91.2466 31.0347 91.1053 30.7333 91.0146 30.392C90.924 30.0453 90.8786 29.68 90.8786 29.296V28.856C90.8786 28.3227 90.964 27.84 91.1346 27.408C91.3106 26.976 91.58 26.632 91.9426 26.376C92.3106 26.12 92.7773 25.992 93.3426 25.992C93.9133 25.992 94.3773 26.12 94.7346 26.376C95.0973 26.632 95.3666 26.976 95.5426 27.408C95.7186 27.84 95.8066 28.3227 95.8066 28.856V29.296C95.8066 29.68 95.7613 30.0453 95.6706 30.392C95.58 30.7333 95.436 31.0347 95.2386 31.296C95.0466 31.5573 94.7933 31.7653 94.4786 31.92C94.1693 32.0693 93.7906 32.144 93.3426 32.144ZM93.3426 31.272C93.86 31.272 94.2386 31.0987 94.4786 30.752C94.724 30.4 94.8466 29.8453 94.8466 29.088C94.8466 28.2933 94.7213 27.7253 94.4706 27.384C94.2253 27.0373 93.8493 26.864 93.3426 26.864C92.836 26.864 92.4573 27.0373 92.2066 27.384C91.9613 27.7253 91.8386 28.288 91.8386 29.072C91.8386 29.8347 91.9613 30.392 92.2066 30.744C92.452 31.096 92.8306 31.272 93.3426 31.272ZM98.3426 32L100.519 26.16H101.287L99.1026 32H98.3426ZM97.9186 29.32C97.6093 29.32 97.356 29.2507 97.1586 29.112C96.9666 28.9733 96.8226 28.7893 96.7266 28.56C96.636 28.3253 96.5906 28.0693 96.5906 27.792V27.584C96.5906 27.2907 96.6386 27.0293 96.7346 26.8C96.8306 26.5707 96.9773 26.392 97.1746 26.264C97.372 26.1307 97.62 26.064 97.9186 26.064C98.2226 26.064 98.4706 26.1307 98.6626 26.264C98.86 26.392 99.0066 26.5707 99.1026 26.8C99.1986 27.0293 99.2466 27.2907 99.2466 27.584V27.792C99.2466 28.0693 99.1986 28.3253 99.1026 28.56C99.012 28.7893 98.8706 28.9733 98.6786 29.112C98.4866 29.2507 98.2333 29.32 97.9186 29.32ZM97.9186 28.68C98.1373 28.68 98.3 28.6027 98.4066 28.448C98.5133 28.288 98.5666 28.0373 98.5666 27.696C98.5666 27.3387 98.5106 27.0827 98.3986 26.928C98.292 26.7733 98.132 26.696 97.9186 26.696C97.7053 26.696 97.5426 26.7733 97.4306 26.928C97.324 27.0827 97.2706 27.336 97.2706 27.688C97.2706 28.0293 97.324 28.28 97.4306 28.44C97.5373 28.6 97.7 28.68 97.9186 28.68ZM101.679 32.096C101.369 32.096 101.116 32.0267 100.919 31.888C100.721 31.7493 100.575 31.5653 100.479 31.336C100.388 31.1013 100.343 30.848 100.343 30.576V30.368C100.343 30.0747 100.391 29.8133 100.487 29.584C100.583 29.3547 100.729 29.1733 100.927 29.04C101.129 28.9067 101.38 28.84 101.679 28.84C101.977 28.84 102.225 28.9067 102.423 29.04C102.62 29.1733 102.767 29.3547 102.863 29.584C102.959 29.8133 103.007 30.0747 103.007 30.368V30.576C103.007 30.848 102.959 31.1013 102.863 31.336C102.772 31.5653 102.628 31.7493 102.431 31.888C102.239 32.0267 101.988 32.096 101.679 32.096ZM101.679 31.464C101.897 31.464 102.057 31.384 102.159 31.224C102.265 31.064 102.319 30.816 102.319 30.48C102.319 30.1227 102.265 29.8667 102.159 29.712C102.052 29.5573 101.892 29.48 101.679 29.48C101.465 29.48 101.303 29.5573 101.191 29.712C101.084 29.8667 101.031 30.12 101.031 30.472C101.031 30.808 101.084 31.0587 101.191 31.224C101.297 31.384 101.46 31.464 101.679 31.464ZM107.206 32.128C106.625 32.128 106.171 32.0053 105.846 31.76C105.526 31.5147 105.358 31.176 105.342 30.744H106.206C106.217 30.904 106.299 31.0507 106.454 31.184C106.609 31.3173 106.862 31.384 107.214 31.384C107.513 31.384 107.747 31.3253 107.918 31.208C108.089 31.0907 108.174 30.944 108.174 30.768C108.174 30.608 108.11 30.4827 107.982 30.392C107.859 30.296 107.649 30.232 107.35 30.2L106.926 30.16C106.483 30.112 106.131 29.9813 105.87 29.768C105.614 29.5547 105.486 29.2667 105.486 28.904C105.486 28.616 105.558 28.3733 105.702 28.176C105.846 27.9787 106.043 27.8267 106.294 27.72C106.55 27.6133 106.843 27.56 107.174 27.56C107.686 27.56 108.099 27.6747 108.414 27.904C108.729 28.128 108.891 28.4587 108.902 28.896H108.046C108.035 28.7307 107.958 28.592 107.814 28.48C107.67 28.368 107.457 28.312 107.174 28.312C106.907 28.312 106.702 28.3653 106.558 28.472C106.419 28.5787 106.35 28.7147 106.35 28.88C106.35 29.0293 106.403 29.1467 106.51 29.232C106.617 29.3173 106.79 29.3733 107.03 29.4L107.454 29.44C107.939 29.4933 108.323 29.6293 108.606 29.848C108.894 30.0613 109.038 30.36 109.038 30.744C109.038 31.0213 108.961 31.264 108.806 31.472C108.651 31.68 108.435 31.8427 108.158 31.96C107.886 32.072 107.569 32.128 107.206 32.128ZM111.942 32.144C111.569 32.144 111.243 32.08 110.966 31.952C110.689 31.824 110.462 31.656 110.286 31.448C110.11 31.2347 109.977 30.9973 109.886 30.736C109.801 30.4693 109.758 30.1973 109.758 29.92V29.768C109.758 29.4853 109.801 29.2133 109.886 28.952C109.977 28.6853 110.11 28.448 110.286 28.24C110.462 28.0267 110.683 27.8587 110.95 27.736C111.222 27.608 111.537 27.544 111.894 27.544C112.358 27.544 112.745 27.6453 113.054 27.848C113.363 28.0507 113.595 28.3147 113.75 28.64C113.905 28.96 113.982 29.3067 113.982 29.68V30.056H110.158V29.424H113.35L113.094 29.744C113.094 29.456 113.049 29.208 112.958 29C112.867 28.7867 112.734 28.624 112.558 28.512C112.382 28.3947 112.161 28.336 111.894 28.336C111.617 28.336 111.385 28.4 111.198 28.528C111.011 28.656 110.873 28.832 110.782 29.056C110.691 29.28 110.646 29.544 110.646 29.848C110.646 30.136 110.691 30.3947 110.782 30.624C110.873 30.848 111.014 31.0267 111.206 31.16C111.398 31.288 111.643 31.352 111.942 31.352C112.241 31.352 112.486 31.288 112.678 31.16C112.87 31.0267 112.987 30.872 113.03 30.696H113.902C113.843 30.9893 113.723 31.2453 113.542 31.464C113.366 31.6827 113.142 31.8507 112.87 31.968C112.598 32.0853 112.289 32.144 111.942 32.144ZM116.64 33.688C116.437 33.688 116.232 33.68 116.024 33.664C115.816 33.648 115.621 33.6267 115.44 33.6V32.808C115.632 32.8347 115.834 32.856 116.048 32.872C116.266 32.8933 116.469 32.904 116.656 32.904C117.029 32.904 117.328 32.856 117.552 32.76C117.781 32.664 117.946 32.5147 118.048 32.312C118.154 32.1147 118.208 31.856 118.208 31.536V30.704L118.456 30.128C118.44 30.544 118.352 30.8933 118.192 31.176C118.037 31.4587 117.829 31.672 117.568 31.816C117.312 31.96 117.018 32.032 116.688 32.032C116.389 32.032 116.117 31.976 115.872 31.864C115.626 31.752 115.416 31.5947 115.24 31.392C115.064 31.1893 114.928 30.9573 114.832 30.696C114.736 30.4293 114.688 30.1467 114.688 29.848V29.696C114.688 29.392 114.736 29.1093 114.832 28.848C114.933 28.5867 115.074 28.36 115.256 28.168C115.437 27.9707 115.653 27.8187 115.904 27.712C116.16 27.6053 116.44 27.552 116.744 27.552C117.096 27.552 117.405 27.6293 117.672 27.784C117.944 27.9333 118.157 28.1547 118.312 28.448C118.466 28.7413 118.549 29.0987 118.56 29.52L118.352 29.544V27.688H119.096V31.488C119.096 32.0107 119.01 32.432 118.84 32.752C118.674 33.0773 118.41 33.3147 118.048 33.464C117.69 33.6133 117.221 33.688 116.64 33.688ZM116.92 31.2C117.154 31.2 117.368 31.1493 117.56 31.048C117.757 30.9413 117.912 30.792 118.024 30.6C118.141 30.4027 118.2 30.168 118.2 29.896V29.568C118.2 29.3013 118.138 29.0773 118.016 28.896C117.898 28.7093 117.744 28.568 117.552 28.472C117.36 28.376 117.152 28.328 116.928 28.328C116.672 28.328 116.445 28.3893 116.248 28.512C116.05 28.6293 115.896 28.7973 115.784 29.016C115.677 29.2293 115.624 29.48 115.624 29.768C115.624 30.0613 115.68 30.3173 115.792 30.536C115.904 30.7493 116.056 30.9147 116.248 31.032C116.445 31.144 116.669 31.2 116.92 31.2ZM121.901 32.128C121.395 32.128 121.005 31.9653 120.733 31.64C120.461 31.3093 120.325 30.824 120.325 30.184V27.688H121.261V30.312C121.261 30.6107 121.344 30.848 121.509 31.024C121.675 31.1947 121.899 31.28 122.181 31.28C122.469 31.28 122.704 31.1893 122.885 31.008C123.072 30.8213 123.165 30.568 123.165 30.248V27.688H124.101V32H123.357V30.16H123.453C123.453 30.592 123.395 30.9547 123.277 31.248C123.165 31.536 122.997 31.7547 122.773 31.904C122.555 32.0533 122.277 32.128 121.941 32.128H121.901ZM125.492 32V27.688H126.236V29.488H126.204C126.204 28.8693 126.34 28.408 126.612 28.104C126.884 27.7947 127.286 27.64 127.82 27.64H127.972V28.464H127.684C127.278 28.464 126.966 28.5733 126.748 28.792C126.534 29.0053 126.428 29.312 126.428 29.712V32H125.492ZM131.388 32V30.712H131.236V29.256C131.236 28.9893 131.167 28.7867 131.028 28.648C130.89 28.5093 130.684 28.44 130.412 28.44C130.263 28.44 130.098 28.4427 129.916 28.448C129.735 28.4533 129.556 28.4613 129.38 28.472C129.21 28.4773 129.058 28.4853 128.924 28.496V27.688C129.042 27.6773 129.17 27.6693 129.308 27.664C129.452 27.6533 129.599 27.6453 129.748 27.64C129.903 27.6347 130.05 27.632 130.188 27.632C130.626 27.632 130.988 27.688 131.276 27.8C131.564 27.912 131.778 28.0907 131.916 28.336C132.06 28.576 132.132 28.8987 132.132 29.304V32H131.388ZM129.988 32.112C129.674 32.112 129.399 32.0587 129.164 31.952C128.93 31.84 128.748 31.68 128.62 31.472C128.492 31.2587 128.428 31.0053 128.428 30.712C128.428 30.4027 128.5 30.1467 128.644 29.944C128.794 29.7413 129.004 29.5893 129.276 29.488C129.548 29.3867 129.874 29.336 130.252 29.336H131.332V29.952H130.228C129.946 29.952 129.73 30.0213 129.58 30.16C129.431 30.2933 129.356 30.4693 129.356 30.688C129.356 30.9067 129.431 31.0827 129.58 31.216C129.73 31.344 129.946 31.408 130.228 31.408C130.394 31.408 130.551 31.3787 130.7 31.32C130.85 31.256 130.972 31.152 131.068 31.008C131.17 30.864 131.226 30.6613 131.236 30.4L131.476 30.712C131.45 31.016 131.375 31.272 131.252 31.48C131.135 31.6827 130.97 31.84 130.756 31.952C130.548 32.0587 130.292 32.112 129.988 32.112Z" fill="white"/>
<defs>
<clipPath id="clip0_786_95">
<rect width="53" height="14" fill="white" transform="translate(0 4)"/>
</clipPath>
<clipPath id="clip1_786_95">
<rect width="14" height="14" fill="white" transform="translate(57 4)"/>
</clipPath>
<clipPath id="clip2_786_95">
<rect width="44" height="14" fill="white" transform="translate(75 4)"/>
</clipPath>
<clipPath id="clip3_786_95">
<rect width="23.5714" height="22" fill="white" transform="translate(123)"/>
</clipPath>
<clipPath id="clip4_786_95">
<rect width="28.2857" height="22" fill="white" transform="translate(150.571)"/>
</clipPath>
</defs>
</svg>
