<svg width="10" height="11" viewBox="0 0 10 11" fill="none" xmlns="http://www.w3.org/2000/svg">
<g clip-path="url(#clip0_511_154)">
<path fill-rule="evenodd" clip-rule="evenodd" d="M4.23239 0.00360564C4.08191 0.0180593 3.8911 0.0587438 3.72899 0.110945C3.70615 0.118296 3.68575 0.12451 3.68364 0.124749C3.66826 0.126498 3.54303 0.17711 3.47469 0.209194C3.42902 0.230638 3.38071 0.252632 3.36733 0.258074C3.34169 0.268496 3.33393 0.272872 3.21001 0.346861C3.13561 0.391283 3.03126 0.460397 3.02578 0.468893C3.02435 0.471103 3.008 0.483846 2.98945 0.497211C2.97089 0.510577 2.92553 0.546569 2.88864 0.577192C2.71497 0.721373 2.56261 0.886465 2.43499 1.06876C2.40185 1.1161 2.37339 1.15608 2.37174 1.1576C2.36727 1.16174 2.33925 1.20585 2.31708 1.24367C2.20229 1.43945 2.11244 1.63762 2.05098 1.8306L2.03205 1.89003L2.01123 1.89372C1.99979 1.89575 1.98575 1.89841 1.98004 1.89963C1.97433 1.90085 1.96149 1.90301 1.9515 1.90444C1.9415 1.90587 1.89363 1.91979 1.84511 1.93537C1.79658 1.95095 1.75221 1.96509 1.7465 1.9668C1.74079 1.9685 1.73378 1.9717 1.73093 1.97391C1.72808 1.97612 1.7129 1.98235 1.6972 1.98776C1.6815 1.99316 1.65114 2.00498 1.62973 2.01402C1.60832 2.02306 1.58687 2.03129 1.58207 2.03231C1.55952 2.03706 1.32932 2.15738 1.28461 2.18778C1.27034 2.19748 1.23064 2.22383 1.19639 2.24633C1.07009 2.32931 0.963832 2.41379 0.872113 2.50413C0.818493 2.55695 0.67593 2.71039 0.629643 2.7651C0.503153 2.91463 0.36553 3.13871 0.261341 3.36479C0.1946 3.50961 0.117574 3.72576 0.0890875 3.84815C0.0216155 4.13805 -3.1105e-05 4.31473 3.35374e-08 4.57528C2.07926e-05 4.77959 0.0185275 4.9582 0.0603155 5.15744C0.0706639 5.20678 0.0802599 5.25465 0.0816352 5.26381C0.0860465 5.29317 0.150726 5.49972 0.183354 5.58864C0.230477 5.71708 0.337221 5.9387 0.403992 6.04674C0.465755 6.14667 0.578275 6.30579 0.637583 6.37706C0.64899 6.39077 0.657454 6.40349 0.65639 6.40534C0.655326 6.40717 0.641714 6.45593 0.626139 6.51368C0.594767 6.62999 0.562783 6.78243 0.558097 6.838C0.55642 6.85785 0.551734 6.90313 0.547686 6.93863C0.527119 7.11898 0.525136 7.34088 0.542532 7.51542C0.546949 7.55971 0.551677 7.60718 0.553037 7.62092C0.554402 7.63467 0.556794 7.65835 0.558351 7.67355C0.572757 7.81407 0.664627 8.15735 0.726032 8.30011C0.770233 8.40287 0.783799 8.43595 0.783799 8.44094C0.783799 8.44398 0.808539 8.49247 0.838774 8.54871C0.86901 8.60494 0.900911 8.66469 0.909661 8.68149C0.961346 8.78069 1.07802 8.94774 1.19084 9.08406C1.28461 9.19736 1.46247 9.37099 1.56188 9.44625C1.58065 9.46045 1.59716 9.47369 1.59859 9.47566C1.61054 9.49219 1.70812 9.55805 1.87365 9.66132C1.90583 9.6814 1.98301 9.72143 2.0527 9.7542C2.07838 9.76627 2.10641 9.78001 2.11497 9.78472C2.12354 9.78942 2.1879 9.81401 2.25802 9.83934C2.41001 9.89427 2.54098 9.93212 2.62097 9.94423C2.63096 9.94574 2.68001 9.95324 2.72996 9.96088C2.87524 9.98312 2.94147 9.98806 3.09324 9.98799C3.24198 9.98793 3.34576 9.97984 3.46885 9.95871C3.50406 9.95267 3.54431 9.94628 3.55828 9.94451C3.57225 9.94273 3.59252 9.93918 3.60332 9.93661L3.62297 9.93193L3.72528 10.0412C3.82798 10.1509 3.94802 10.2607 4.03177 10.3217C4.05648 10.3397 4.08604 10.3624 4.09746 10.3721C4.12112 10.3923 4.16613 10.4237 4.21164 10.4516C4.29883 10.5051 4.40706 10.567 4.43721 10.5805C4.56283 10.6369 4.5863 10.6477 4.59453 10.6528C4.60739 10.6608 4.71733 10.7024 4.73356 10.7055C4.74089 10.7069 4.76443 10.7141 4.78589 10.7216C4.89139 10.7585 5.06255 10.7986 5.20547 10.8199C5.27574 10.8304 5.31283 10.8321 5.4987 10.8331C5.61573 10.8338 5.73483 10.8322 5.76337 10.8296C5.91999 10.8155 6.15051 10.7656 6.28365 10.717C6.30434 10.7095 6.32127 10.7043 6.32127 10.7056C6.32127 10.7109 6.4504 10.6594 6.52627 10.6238C6.57194 10.6024 6.62082 10.5802 6.63489 10.5745C6.64896 10.5687 6.68049 10.5519 6.70495 10.537C6.72941 10.5222 6.77629 10.4942 6.80911 10.4748C6.86779 10.4402 6.93457 10.3948 7.00113 10.3442C7.23238 10.1687 7.41617 9.97865 7.57548 9.75038C7.60531 9.70762 7.63252 9.66889 7.63593 9.66431C7.64943 9.64618 7.71192 9.54202 7.7392 9.49218C7.77968 9.41822 7.87296 9.21997 7.89072 9.17012C7.89889 9.14722 7.90965 9.11848 7.91463 9.10627C7.91962 9.09405 7.93386 9.05246 7.94629 9.01385L7.96888 8.94365L7.9949 8.93753C8.00921 8.93417 8.02989 8.93024 8.04085 8.9288C8.0749 8.92433 8.22455 8.87602 8.31155 8.84141C8.35722 8.82325 8.39874 8.80744 8.40384 8.8063C8.43608 8.79903 8.67543 8.67089 8.75787 8.61676C8.88868 8.53088 9.03689 8.41937 9.07649 8.37705C9.08413 8.36889 9.10895 8.34472 9.13165 8.32334C9.20449 8.25475 9.26364 8.19205 9.33331 8.10956C9.37071 8.06528 9.40567 8.02405 9.41098 8.01794C9.43558 7.98968 9.54191 7.83311 9.57973 7.76946C9.6875 7.58812 9.75636 7.44409 9.82668 7.25291C9.8651 7.14846 9.90778 7.0115 9.91445 6.97126C9.91571 6.96363 9.92502 6.91984 9.93513 6.87396C9.95654 6.77675 9.97658 6.65399 9.9882 6.54875C9.9994 6.44725 10.0037 6.18596 9.99604 6.07728C9.96537 5.64449 9.84088 5.22089 9.63784 4.85847C9.58196 4.75871 9.47419 4.59794 9.40189 4.50649C9.33521 4.42212 9.34065 4.43272 9.34985 4.40511C9.38083 4.31206 9.42796 4.10502 9.43752 4.02001C9.43923 4.00474 9.44399 3.96476 9.44808 3.93117C9.46429 3.79818 9.46815 3.7306 9.46809 3.58135C9.46802 3.43127 9.46437 3.36811 9.44752 3.22598C9.44317 3.18933 9.43864 3.14924 9.43745 3.1369C9.42954 3.05517 9.38444 2.8666 9.33378 2.70343C9.30161 2.59985 9.28536 2.55748 9.22114 2.40973C9.16829 2.28816 9.03221 2.04198 8.98174 1.97662C8.97466 1.96746 8.95176 1.93589 8.93084 1.90648C8.80245 1.72594 8.61425 1.52686 8.44725 1.39496C8.42114 1.37434 8.3951 1.35291 8.38939 1.34735C8.35295 1.31186 8.14064 1.17629 8.04168 1.12531C7.9679 1.08731 7.82283 1.01935 7.8097 1.01664C7.80313 1.01529 7.7639 1.00163 7.72251 0.98628C7.6128 0.945601 7.45717 0.899969 7.40734 0.893873C7.39658 0.892557 7.38193 0.89023 7.37479 0.888703C7.34138 0.881562 7.17337 0.857541 7.11531 0.851611C6.95754 0.835492 6.69981 0.84552 6.53211 0.874305C6.4969 0.880346 6.45665 0.886743 6.44268 0.888514C6.42871 0.890286 6.40825 0.893884 6.39722 0.89651L6.37716 0.901291L6.28305 0.800038C6.16649 0.674647 6.04764 0.567458 5.93464 0.485817C5.9118 0.46932 5.89195 0.454245 5.89052 0.452312C5.88618 0.446438 5.82728 0.405115 5.7997 0.388595C5.63657 0.290879 5.59242 0.265426 5.56357 0.252449C5.48225 0.215862 5.41449 0.184906 5.40009 0.177754C5.37402 0.164811 5.28269 0.130396 5.26614 0.127275C5.25758 0.125665 5.23634 0.119207 5.21894 0.112938C5.12204 0.0779894 4.93514 0.0339233 4.79548 0.0130896C4.72469 0.00252842 4.68891 0.00097368 4.49707 0.000107461C4.37719 -0.000436702 4.25808 0.00114024 4.23239 0.00360564ZM4.33619 0.713577C4.30479 0.716331 4.24524 0.723938 4.20385 0.730491C4.16246 0.737043 4.11926 0.743239 4.10784 0.744261C4.05563 0.748942 3.88897 0.801731 3.78089 0.84783C3.75234 0.860001 3.72471 0.870862 3.71949 0.871956C3.68656 0.878869 3.40482 1.04669 3.38906 1.06879C3.38763 1.07079 3.35911 1.09421 3.32568 1.12085C3.01245 1.3704 2.76538 1.74696 2.65833 2.13797C2.62567 2.25727 2.61735 2.29269 2.60302 2.37364C2.57038 2.55794 2.57246 2.45892 2.57053 3.92083L2.56877 5.25424L2.58236 5.27152C2.58984 5.28102 2.59924 5.2888 2.60327 5.2888C2.6073 5.2888 2.61059 5.2913 2.61059 5.29435C2.61059 5.2974 2.61307 5.2999 2.61609 5.2999C2.61912 5.2999 2.66802 5.32864 2.72477 5.36376C2.78152 5.39888 2.82909 5.42762 2.83048 5.42762C2.83375 5.42762 2.89781 5.46791 2.90122 5.47212C2.90265 5.47388 2.93067 5.49165 2.9635 5.51162C2.99632 5.53158 3.05538 5.5677 3.09474 5.59187C3.13409 5.61606 3.17262 5.63959 3.18037 5.64417C3.18811 5.64875 3.19561 5.65402 3.19704 5.65588C3.19846 5.65774 3.21715 5.66935 3.23856 5.68168C3.25996 5.69401 3.31222 5.72569 3.35469 5.75209C3.39715 5.77849 3.43265 5.79928 3.43357 5.79829C3.43449 5.79731 3.43597 5.10194 3.43687 4.25304L3.4385 2.70958L3.45257 2.66516C3.4679 2.61676 3.49594 2.56245 3.52316 2.52842C3.54406 2.50229 3.58746 2.46891 3.65374 2.428C3.68085 2.41125 3.73106 2.38004 3.76532 2.35864C3.79957 2.33723 3.86008 2.30031 3.89978 2.27658C3.93949 2.25286 3.98737 2.22283 4.00617 2.20986C4.02499 2.19689 4.05322 2.17898 4.06892 2.17005C4.09324 2.15621 4.2157 2.08163 4.24796 2.061C4.25367 2.05735 4.25951 2.05282 4.26094 2.05094C4.26237 2.04906 4.27403 2.04183 4.28685 2.03487C4.29968 2.02791 4.34638 1.99981 4.39065 1.97243C4.43491 1.94505 4.48864 1.91263 4.51005 1.90038C4.53145 1.88815 4.55598 1.87262 4.56454 1.86588C4.5731 1.85913 4.6128 1.83405 4.65277 1.81013C4.69273 1.78621 4.74878 1.7517 4.77732 1.73344C4.80586 1.71518 4.86425 1.67907 4.90706 1.65319C4.94988 1.6273 5.04213 1.57045 5.11206 1.52684C5.18199 1.48324 5.25944 1.43542 5.28417 1.42058C5.33686 1.38895 5.38386 1.35972 5.46176 1.31015C5.49282 1.29038 5.5192 1.27421 5.52038 1.27421C5.52156 1.27421 5.55751 1.25262 5.60028 1.22623C5.69191 1.16969 5.69248 1.18206 5.59471 1.10587C5.55903 1.07807 5.52867 1.05368 5.52724 1.05167C5.51992 1.04138 5.45332 0.99939 5.37155 0.953503C5.34158 0.936684 5.30241 0.914357 5.2845 0.903884C5.26661 0.893412 5.23741 0.879086 5.21963 0.872051C5.20186 0.86501 5.15546 0.846447 5.11652 0.830789C5.0097 0.787839 4.88372 0.75013 4.82644 0.743961C4.81084 0.742279 4.77823 0.737304 4.75397 0.732906C4.64467 0.713088 4.44637 0.703915 4.33619 0.713577ZM6.77538 1.56068C6.76681 1.56189 6.73412 1.56561 6.70272 1.56895C6.63767 1.57585 6.52524 1.59694 6.46399 1.61372C6.4196 1.62588 6.40911 1.62856 6.38874 1.63295C6.31832 1.64812 6.07344 1.75319 6.01083 1.7951C5.99747 1.80404 5.95384 1.83087 5.91388 1.85471C5.87392 1.87855 5.82254 1.90996 5.7997 1.92451C5.77687 1.93905 5.73483 1.96526 5.70629 1.98274C5.59519 2.0508 5.47833 2.12279 5.36789 2.1912C5.30451 2.23046 5.25154 2.26259 5.25019 2.26259C5.2469 2.26259 5.18282 2.303 5.17953 2.30716C5.1781 2.30896 5.14657 2.32879 5.10946 2.35124C4.96104 2.44099 4.92252 2.46473 4.92004 2.46796C4.91724 2.47161 4.88922 2.48904 4.8396 2.518C4.82247 2.528 4.77062 2.55958 4.72437 2.58817C4.67813 2.61677 4.63784 2.64017 4.63485 2.64017C4.63186 2.64017 4.62941 2.64267 4.62941 2.64572C4.62941 2.64878 4.62743 2.65127 4.625 2.65127C4.62258 2.65127 4.5998 2.66462 4.5744 2.68094C4.549 2.69726 4.48501 2.73638 4.4322 2.76788C4.37939 2.79938 4.33502 2.82687 4.3336 2.82898C4.33087 2.83301 4.23054 2.89559 4.22681 2.89559C4.2231 2.89559 4.07685 2.98651 4.07411 2.99052C4.07268 2.99261 4.04466 3.00996 4.01183 3.02909C3.93301 3.07503 3.91474 3.08764 3.90826 3.1006C3.90461 3.10789 3.90285 3.28336 3.90285 3.63888V4.16635L3.95085 4.13587C3.97726 4.1191 4.01754 4.09316 4.04037 4.07821C4.06321 4.06327 4.08339 4.05093 4.08522 4.05079C4.08705 4.05066 4.13142 4.02395 4.18382 3.99143C4.23622 3.95892 4.32581 3.90364 4.3829 3.8686C4.43999 3.83356 4.50187 3.79557 4.52043 3.78417C4.53898 3.77278 4.57577 3.74939 4.60218 3.73221C4.6286 3.71503 4.66596 3.69193 4.68522 3.68089C4.73854 3.65031 4.83926 3.58789 4.84219 3.58361C4.84362 3.58152 4.86814 3.56618 4.89668 3.54952C4.94878 3.5191 4.99883 3.48832 5.19406 3.36662C5.25201 3.3305 5.30105 3.30083 5.30304 3.30069C5.30504 3.30055 5.3312 3.28451 5.36117 3.26504C5.41706 3.22874 5.4615 3.20115 5.5973 3.11844C5.64012 3.09236 5.67632 3.06943 5.67774 3.06748C5.67917 3.06554 5.69902 3.0531 5.72186 3.03984C5.74469 3.02659 5.78906 2.99967 5.82046 2.98003C5.85186 2.96039 5.89506 2.93428 5.91647 2.92201C5.93788 2.90975 5.96474 2.89307 5.97615 2.88495C5.99642 2.87055 6.04686 2.83936 6.18374 2.75658C6.22085 2.73414 6.25238 2.7143 6.25381 2.71249C6.25795 2.70725 6.32528 2.66639 6.37168 2.64096C6.4532 2.5963 6.53552 2.58471 6.612 2.60712C6.65509 2.61975 6.72571 2.65653 6.80257 2.70639C6.83043 2.72446 6.87891 2.75488 6.91031 2.77399C7.04884 2.85833 7.39251 3.07071 7.46536 3.11701C7.49119 3.13341 7.52517 3.15427 7.54087 3.16334C7.57133 3.18095 7.65911 3.23579 7.72165 3.27629C7.74259 3.28984 7.76066 3.30094 7.76182 3.30094C7.7642 3.30094 7.96094 3.42063 7.96929 3.42716C7.97229 3.4295 7.98046 3.43498 7.98745 3.43932C7.99444 3.44367 8.02582 3.46329 8.05718 3.48294C8.08854 3.50258 8.12941 3.52744 8.148 3.53817C8.19834 3.56723 8.26448 3.60803 8.26743 3.61185C8.27053 3.61585 8.3708 3.67852 8.3741 3.67852C8.37775 3.67852 8.52405 3.76927 8.52692 3.77332C8.52835 3.77533 8.53904 3.78214 8.55068 3.78845C8.56232 3.79477 8.61751 3.82843 8.67334 3.86326L8.77484 3.92659L8.78334 3.85871C8.81251 3.6258 8.80497 3.40256 8.76027 3.176C8.75123 3.13019 8.74271 3.08547 8.74134 3.07662C8.73792 3.05463 8.70412 2.93559 8.69545 2.91503C8.69159 2.90586 8.6775 2.86838 8.66414 2.83174C8.63575 2.75384 8.57519 2.62219 8.53464 2.55023C8.51898 2.52243 8.50616 2.49863 8.50616 2.49733C8.50616 2.49293 8.43403 2.38204 8.42206 2.36804C8.41551 2.36037 8.39147 2.32915 8.36863 2.29865C8.2846 2.18639 8.13713 2.03842 7.99928 1.92803C7.95153 1.88978 7.81745 1.80501 7.73289 1.75959C7.6687 1.72511 7.45846 1.63925 7.423 1.63303C7.41504 1.63164 7.40736 1.62999 7.40593 1.62938C7.40451 1.62876 7.40179 1.62849 7.39989 1.62876C7.39799 1.62904 7.38449 1.62547 7.36987 1.62082C7.3249 1.60653 7.19443 1.57969 7.12592 1.57063C7.06519 1.56259 6.81241 1.55542 6.77538 1.56068ZM1.83473 2.69552C1.75032 2.73505 1.63779 2.79253 1.62876 2.80072C1.62501 2.80413 1.59159 2.82711 1.55448 2.85178C1.51737 2.87646 1.4686 2.91078 1.44609 2.92805C1.33011 3.01704 1.17882 3.17107 1.08799 3.29261C0.981062 3.4357 0.876405 3.6257 0.812727 3.79235C0.802223 3.81984 0.79025 3.8502 0.786119 3.85982C0.781988 3.86944 0.778609 3.88001 0.778609 3.8833C0.778609 3.8866 0.768095 3.92439 0.755245 3.96729C0.695947 4.16529 0.669251 4.35128 0.669189 4.56695C0.669121 4.78769 0.694146 4.95715 0.760746 5.18688C0.847327 5.48556 1.00946 5.76957 1.22473 5.99969C1.29347 6.07317 1.35622 6.13161 1.42473 6.18594C1.44757 6.20406 1.46909 6.22137 1.47256 6.22442C1.47603 6.22748 1.48187 6.2326 1.48553 6.2358C1.51263 6.25946 1.58329 6.30491 1.77944 6.4248C1.78987 6.43118 1.84128 6.46303 1.89368 6.4956C1.94608 6.52817 1.99005 6.55481 1.99138 6.55481C1.99466 6.55481 2.0676 6.6008 2.07086 6.60492C2.07229 6.60673 2.10381 6.62658 2.14092 6.64903C2.28386 6.73553 2.31822 6.75676 2.34332 6.77412C2.35759 6.78398 2.38498 6.80108 2.40417 6.8121C2.42336 6.82312 2.46656 6.84925 2.50018 6.87017C2.53379 6.89109 2.57998 6.91904 2.60281 6.93229C2.62565 6.94553 2.6455 6.95797 2.64692 6.95993C2.65008 6.96426 2.73286 7.01562 2.83111 7.07421C2.87104 7.09802 2.90682 7.12083 2.91062 7.12489C2.91442 7.12896 2.92067 7.13229 2.92451 7.13229C2.92835 7.13229 2.93227 7.13428 2.93323 7.13671C2.93485 7.14086 3.00849 7.18781 3.01337 7.18781C3.01461 7.18781 3.1014 7.24109 3.20623 7.30619C3.31107 7.3713 3.41553 7.43538 3.43836 7.44857C3.4612 7.46178 3.48922 7.47944 3.50064 7.48782C3.52662 7.50689 3.6002 7.55207 3.63893 7.57272L3.66823 7.58835L3.69861 7.57044C3.71532 7.56058 3.76869 7.52836 3.81721 7.49882C3.86574 7.46927 3.92179 7.43553 3.94177 7.42383C3.96175 7.41212 3.97926 7.40096 3.98069 7.39902C3.98346 7.39525 4.07171 7.34016 4.12341 7.30993C4.18296 7.27511 4.2376 7.24115 4.24018 7.23736C4.24161 7.23526 4.28131 7.21045 4.32841 7.18222C4.47457 7.09462 4.53081 7.05933 4.53081 7.05519C4.53081 7.053 4.52001 7.04559 4.5068 7.03873C4.4936 7.03187 4.44397 7.00224 4.39652 6.9729C4.34907 6.94355 4.29973 6.91333 4.28689 6.90574C4.27404 6.89815 4.25769 6.88768 4.25056 6.88248C4.23338 6.86996 4.09066 6.78247 4.08742 6.78247C4.08603 6.78247 4.06348 6.76873 4.03732 6.75193C4.01115 6.73513 3.9879 6.72139 3.98565 6.72139C3.9834 6.72139 3.98078 6.71936 3.97982 6.71689C3.97888 6.71441 3.95591 6.69901 3.92879 6.68265C3.90168 6.6663 3.84329 6.63058 3.79905 6.60326C3.55061 6.44988 3.48619 6.41044 3.48406 6.41044C3.48277 6.41044 3.43926 6.38331 3.38738 6.35016C3.3355 6.317 3.26035 6.27034 3.22039 6.24647C3.18043 6.22259 3.14657 6.20154 3.14514 6.19968C3.1419 6.19545 3.069 6.14946 3.06554 6.14946C3.06415 6.14946 3.01234 6.11823 2.95042 6.08005C2.8885 6.04188 2.83594 6.01065 2.83363 6.01065C2.83132 6.01065 2.82865 6.00867 2.8277 6.00626C2.82593 6.00177 2.70952 5.92887 2.64433 5.89141C2.62435 5.87994 2.59632 5.86232 2.58205 5.85227C2.55352 5.83219 2.46522 5.77743 2.46136 5.77743C2.46003 5.77743 2.42475 5.756 2.38297 5.7298C2.34118 5.70361 2.30232 5.67924 2.29661 5.67566C2.29091 5.67208 2.28507 5.66775 2.28364 5.66602C2.28221 5.66429 2.26047 5.65097 2.23533 5.6364C2.14538 5.58429 2.03696 5.51501 2.01911 5.49825C1.97466 5.45649 1.9363 5.39071 1.91642 5.32211C1.90821 5.2938 1.90737 5.19568 1.90488 3.97774L1.90219 2.66391L1.83473 2.69552ZM6.31842 3.25029C6.31571 3.25297 6.29948 3.2633 6.28235 3.27325C6.26522 3.2832 6.21385 3.31419 6.16818 3.34211C6.12251 3.37003 6.07463 3.39886 6.06179 3.40618C6.04894 3.4135 6.03726 3.42093 6.03584 3.42268C6.03216 3.42721 6.01169 3.43989 5.81268 3.56101C5.77985 3.58098 5.75183 3.59885 5.7504 3.60071C5.74747 3.60453 5.71834 3.6226 5.66477 3.65384C5.64479 3.66549 5.59496 3.6958 5.55403 3.72119C5.51311 3.74659 5.4773 3.76736 5.47446 3.76736C5.46223 3.76736 5.47548 3.78172 5.50161 3.79678C5.5288 3.81245 5.56897 3.83719 5.80433 3.98326C5.86396 4.02027 5.9137 4.05055 5.91485 4.05055C5.91839 4.05055 6.00193 4.10244 6.0047 4.10635C6.00613 4.10837 6.03473 4.12662 6.06827 4.14692C6.10181 4.16721 6.15669 4.20042 6.19023 4.22071C6.22377 4.24101 6.25238 4.25936 6.25381 4.2615C6.25523 4.26363 6.27435 4.27562 6.29629 4.28814C6.31822 4.30066 6.37194 4.33308 6.41565 4.3602C6.45936 4.38731 6.51381 4.4203 6.53665 4.4335C6.55948 4.44671 6.57933 4.45926 6.58076 4.4614C6.58332 4.46525 6.66284 4.51477 6.72348 4.5503C6.7865 4.58722 6.83806 4.61934 6.85322 4.63114C6.86179 4.6378 6.89565 4.659 6.92848 4.67825C6.9613 4.6975 7.06577 4.76154 7.16062 4.82056C7.25547 4.87958 7.33409 4.92787 7.33532 4.92787C7.33894 4.92787 7.41348 4.97411 7.41631 4.97812C7.41878 4.98161 7.4506 5.00119 7.60574 5.09471C7.64285 5.11708 7.67437 5.13702 7.6758 5.13903C7.67723 5.14103 7.70175 5.1565 7.73029 5.1734C7.75884 5.19029 7.81613 5.22505 7.85761 5.25062C7.89909 5.2762 7.93976 5.30088 7.94799 5.30546C7.97205 5.31885 8.02448 5.37879 8.04571 5.41717C8.05648 5.43666 8.07166 5.47259 8.07944 5.49702L8.09358 5.54145L8.09495 6.85327C8.09592 7.78344 8.09794 8.16509 8.1019 8.16509C8.10496 8.16509 8.1226 8.15759 8.1411 8.14843C8.15961 8.13927 8.17577 8.13177 8.17702 8.13177C8.18385 8.13177 8.34816 8.04676 8.3496 8.04248C8.35056 8.03967 8.35353 8.03738 8.3562 8.03738C8.35888 8.03738 8.36978 8.03141 8.38042 8.02412C8.39106 8.01683 8.42546 7.99385 8.45686 7.97305C8.67027 7.8317 8.86472 7.62907 9.00791 7.39882C9.18565 7.11301 9.2879 6.80938 9.32672 6.45208C9.33575 6.36899 9.33425 6.15105 9.32398 6.0534C9.30732 5.89499 9.26801 5.71712 9.21419 5.55654C9.18469 5.46853 9.10416 5.29224 9.05139 5.20017C8.92447 4.97874 8.71227 4.73882 8.52566 4.60579C8.51498 4.59817 8.50622 4.59007 8.5062 4.58777C8.50618 4.58548 8.50286 4.58361 8.49881 4.58361C8.49477 4.58361 8.49068 4.58156 8.48973 4.57906C8.4876 4.57348 8.43152 4.53303 8.41015 4.52167C8.40159 4.51711 8.34934 4.48546 8.29405 4.45133C8.23875 4.41719 8.19165 4.38926 8.18938 4.38926C8.18712 4.38926 8.18449 4.38734 8.18353 4.385C8.18258 4.38266 8.14444 4.35805 8.09877 4.33032C7.97664 4.25616 7.92602 4.22466 7.89118 4.20114C7.87405 4.18958 7.84252 4.17017 7.82111 4.158C7.78964 4.14011 7.71806 4.09643 7.64207 4.04873C7.63636 4.04515 7.63052 4.04068 7.62909 4.03879C7.62767 4.0369 7.61716 4.0305 7.60574 4.02457C7.59432 4.01863 7.54878 3.99124 7.50454 3.96369C7.4603 3.93614 7.40541 3.90274 7.38258 3.88947C7.35974 3.87619 7.33989 3.86375 7.33847 3.86181C7.33551 3.8578 7.19891 3.77292 7.19542 3.77292C7.19083 3.77292 7.08137 3.704 7.07472 3.69692C7.07094 3.69291 7.06472 3.68963 7.06088 3.68963C7.05704 3.68963 7.05312 3.68754 7.05216 3.685C7.05121 3.68246 7.03409 3.67077 7.01411 3.65903C6.99413 3.64729 6.93161 3.60939 6.8752 3.57481C6.81877 3.54023 6.77051 3.51194 6.76794 3.51194C6.76537 3.51194 6.76249 3.50992 6.76154 3.50746C6.76059 3.505 6.72478 3.48163 6.68196 3.45554C6.47213 3.32766 6.48096 3.33314 6.47697 3.3284C6.47326 3.32399 6.39634 3.27733 6.36426 3.26002C6.33539 3.24444 6.32628 3.24251 6.31842 3.25029ZM4.94303 4.0988C4.91183 4.1189 4.8758 4.14151 4.86295 4.14904C4.85011 4.15657 4.80924 4.1816 4.77213 4.20468C4.73502 4.22775 4.68131 4.26025 4.65277 4.27692C4.62422 4.29358 4.5997 4.30892 4.59827 4.31101C4.5954 4.31521 4.49537 4.37726 4.44258 4.40759C4.42403 4.41825 4.39133 4.43838 4.36992 4.45231C4.34852 4.46626 4.30765 4.49197 4.2791 4.50947C4.25056 4.52696 4.18327 4.56829 4.12959 4.60131C4.07589 4.63433 4.02996 4.66135 4.02752 4.66135C4.02507 4.66135 4.0223 4.66338 4.02134 4.66586C4.02039 4.66834 3.99334 4.68634 3.96123 4.70586L3.90285 4.74135L3.90289 5.41625L3.90293 6.09116L3.96647 6.12967C4.0014 6.15086 4.03077 6.17022 4.03172 6.17271C4.03268 6.17519 4.03546 6.17723 4.03791 6.17723C4.04036 6.17723 4.07695 6.19871 4.11922 6.22496C4.16149 6.25122 4.22176 6.28784 4.25315 6.30635C4.28455 6.32485 4.31102 6.3421 4.31197 6.34468C4.31292 6.34725 4.31555 6.34936 4.3178 6.34936C4.32004 6.34936 4.34262 6.36266 4.36796 6.37893C4.3933 6.39519 4.43415 6.42003 4.45874 6.43413C4.48333 6.44823 4.52508 6.47365 4.55152 6.49063C4.57797 6.50761 4.60144 6.52149 4.60369 6.52149C4.60594 6.52149 4.60856 6.52351 4.60952 6.52598C4.61047 6.52846 4.62526 6.5388 4.64239 6.54897C4.68518 6.57438 4.86036 6.68088 4.8885 6.69861C4.90113 6.70656 4.93149 6.72569 4.95597 6.74113L5.00047 6.7692L5.03681 6.74699C5.05679 6.73478 5.0743 6.72305 5.07573 6.72093C5.07716 6.71881 5.10285 6.70277 5.13282 6.68529C5.16279 6.66781 5.20599 6.64172 5.22883 6.62732C5.25166 6.61292 5.2972 6.58533 5.33003 6.566C5.36285 6.54668 5.39088 6.52928 5.39231 6.52733C5.39502 6.52363 5.5362 6.43586 5.54558 6.43206C5.55379 6.42871 5.64885 6.36994 5.65179 6.36638C5.65492 6.3626 5.65984 6.35954 5.75559 6.30185C5.79698 6.27691 5.87872 6.22664 5.93723 6.19014C5.99575 6.15363 6.05588 6.11643 6.07086 6.10746L6.0981 6.09116L6.09809 5.41651L6.09808 4.74186L6.02225 4.69466C5.98054 4.6687 5.94377 4.64646 5.94053 4.64524C5.93729 4.64402 5.93347 4.64145 5.93204 4.63953C5.92931 4.63585 5.78863 4.54915 5.74002 4.52119C5.70473 4.50089 5.67599 4.48255 5.67255 4.47813C5.66918 4.47379 5.61575 4.44083 5.55319 4.40449C5.49614 4.37136 5.40511 4.31427 5.39842 4.30743C5.39465 4.30357 5.38823 4.30042 5.38415 4.30042C5.38007 4.30042 5.37674 4.29842 5.37674 4.29597C5.37674 4.29353 5.36609 4.286 5.35308 4.27923C5.34007 4.27247 5.29395 4.24492 5.25058 4.21801C5.20722 4.19109 5.15072 4.15699 5.12503 4.14222C5.09934 4.12745 5.07716 4.11375 5.07573 4.11177C5.07368 4.10893 5.0155 4.07073 5.00272 4.06384C5.0011 4.06296 4.97424 4.0787 4.94303 4.0988ZM6.56025 6.57213C6.5607 7.97688 6.55999 8.12093 6.55239 8.15121C6.53351 8.22644 6.4882 8.30274 6.43858 8.34282C6.42285 8.35553 6.3836 8.38187 6.35135 8.40135C6.31911 8.42084 6.2903 8.43874 6.28732 8.44114C6.27795 8.44868 6.20995 8.49066 6.06179 8.58034C6.02896 8.60021 6.00094 8.61811 5.99951 8.62013C5.99677 8.62399 5.91322 8.67593 5.90974 8.67593C5.90687 8.67593 5.75675 8.76851 5.73483 8.78381C5.72484 8.79077 5.66762 8.82601 5.60768 8.86212C5.54774 8.89823 5.48235 8.93833 5.46237 8.95123C5.44239 8.96413 5.39218 8.99535 5.35079 9.02062C5.20073 9.11221 5.1665 9.13354 5.16396 9.13705C5.16253 9.13902 5.13537 9.15594 5.10361 9.17465C5.07184 9.19337 5.00295 9.23534 4.95051 9.26792C4.89807 9.3005 4.81954 9.3493 4.77599 9.37635C4.73244 9.40341 4.69562 9.42555 4.69417 9.42555C4.69272 9.42555 4.64479 9.45553 4.58768 9.49218C4.53057 9.52883 4.4826 9.55881 4.48109 9.55881C4.47775 9.55881 4.33289 9.64776 4.32636 9.65383C4.32086 9.65893 4.33554 9.67261 4.40427 9.72645C4.43248 9.74854 4.45672 9.76815 4.45815 9.77002C4.46268 9.77596 4.52201 9.81748 4.54897 9.83358C4.70304 9.9256 4.74173 9.94578 4.84223 9.98651C4.97066 10.0385 5.11448 10.0837 5.16915 10.0892C5.18199 10.0904 5.22403 10.0965 5.26256 10.1027C5.38189 10.1219 5.50775 10.1281 5.62204 10.1205C5.67694 10.1168 5.74755 10.1099 5.77894 10.1051C5.81034 10.1003 5.8442 10.0956 5.8542 10.0945C5.86419 10.0934 5.87236 10.0922 5.87236 10.0917C5.87236 10.0913 5.88026 10.09 5.88992 10.089C5.9738 10.0798 6.25893 9.97689 6.36279 9.91829C6.51496 9.83241 6.55552 9.80598 6.64566 9.73395C6.82061 9.59415 6.95811 9.44443 7.08504 9.25554C7.15053 9.15808 7.23665 8.9902 7.28421 8.86726C7.32575 8.75991 7.37583 8.57471 7.39775 8.4474C7.42765 8.2738 7.42669 8.32564 7.42669 6.88881C7.42669 5.68579 7.42595 5.56714 7.4184 5.56044C7.40891 5.55201 7.36423 5.52371 7.2481 5.4526C7.20321 5.42512 7.12467 5.37639 7.07356 5.34432C7.02245 5.31226 6.94613 5.26527 6.90395 5.2399C6.81349 5.18549 6.80732 5.18161 6.80392 5.177C6.80249 5.17506 6.78731 5.16542 6.77019 5.15558C6.70671 5.1191 6.67123 5.09785 6.65861 5.08873C6.65147 5.08358 6.63162 5.07113 6.61449 5.06106C6.59737 5.05099 6.57804 5.03907 6.57155 5.03456L6.55975 5.02637L6.56025 6.57213ZM6.03843 6.70307C6.01274 6.72013 5.95669 6.75524 5.91388 6.78108C5.87106 6.80692 5.78582 6.85938 5.72445 6.89766C5.66308 6.93595 5.5914 6.98066 5.56516 6.99702C5.53891 7.01339 5.51635 7.02679 5.51501 7.02679C5.51135 7.02679 5.43681 7.07282 5.43382 7.07693C5.4309 7.08094 5.30395 7.16005 5.30043 7.16005C5.29674 7.16005 5.15121 7.25064 5.14839 7.2547C5.14696 7.25675 5.12944 7.26781 5.10946 7.27929C5.06343 7.30573 4.90682 7.40175 4.84219 7.44318C4.81508 7.46057 4.74968 7.50056 4.69688 7.53208C4.64407 7.56359 4.60009 7.59147 4.59914 7.59404C4.59818 7.59661 4.59427 7.59871 4.59043 7.59871C4.58659 7.59871 4.58034 7.60204 4.57653 7.60611C4.57273 7.61017 4.53695 7.63297 4.49702 7.65677C4.41208 7.70737 4.33331 7.75587 4.30765 7.77336C4.28316 7.79004 4.14096 7.87684 4.0767 7.91433C4.04816 7.93098 4.0178 7.95011 4.00924 7.95683C4.00067 7.96356 3.96331 7.98728 3.9262 8.00955C3.78354 8.09514 3.73928 8.12241 3.73677 8.12626C3.72995 8.13672 3.59497 8.21 3.56292 8.22063C3.51331 8.23709 3.45325 8.24054 3.40547 8.22968C3.36214 8.21981 3.28746 8.18282 3.20648 8.13109C3.11355 8.07173 3.07449 8.0474 2.95571 7.97494C2.89292 7.93663 2.80884 7.88468 2.76888 7.85949C2.72892 7.83431 2.68338 7.80628 2.66768 7.79719C2.604 7.76032 2.58193 7.74679 2.57946 7.74311C2.57664 7.73891 2.4725 7.67397 2.44712 7.6606C2.42226 7.64749 2.30776 7.57611 2.29921 7.56838C2.29493 7.56452 2.27274 7.55063 2.24991 7.53752C2.22707 7.52441 2.17803 7.49487 2.14092 7.47188C2.10381 7.4489 2.06061 7.42273 2.04491 7.41374C2.02921 7.40475 2.01053 7.39304 2.00339 7.38773C1.98787 7.37616 1.9127 7.32973 1.8166 7.27234C1.77805 7.24932 1.73949 7.22505 1.73093 7.21841C1.72237 7.21177 1.69201 7.19241 1.66346 7.17537C1.59608 7.13517 1.50494 7.07985 1.46885 7.05725C1.45315 7.04742 1.40294 7.0162 1.35727 6.98789C1.3116 6.95957 1.26372 6.92931 1.25088 6.92065L1.22752 6.90489L1.22413 6.92558C1.20678 7.03139 1.20214 7.09857 1.202 7.24612C1.20182 7.42475 1.20799 7.49103 1.24127 7.66812C1.28191 7.88435 1.36154 8.09892 1.47929 8.30946C1.5129 8.36955 1.57795 8.4695 1.60347 8.50025C1.61143 8.50984 1.6391 8.54409 1.66495 8.57637C1.72286 8.64865 1.83068 8.7604 1.89826 8.81819C1.92611 8.842 1.95007 8.86307 1.9515 8.86501C1.96793 8.88739 2.15292 9.01119 2.24212 9.05951C2.334 9.10928 2.55846 9.20213 2.56941 9.19489C2.57169 9.19338 2.57504 9.19473 2.57686 9.19789C2.57868 9.20104 2.58219 9.20229 2.58465 9.20066C2.58711 9.19904 2.59061 9.20028 2.59243 9.20344C2.59425 9.20659 2.59763 9.20793 2.59994 9.2064C2.60224 9.20488 2.61591 9.20738 2.63032 9.21196C2.6723 9.22529 2.79931 9.25148 2.87527 9.26246C2.9726 9.27653 3.22228 9.27668 3.3164 9.26272C3.38565 9.25245 3.49622 9.23025 3.54735 9.21635C3.58244 9.20682 3.5936 9.20403 3.61222 9.20019C3.69389 9.18331 3.91292 9.08438 4.04037 9.00679C4.09175 8.97552 4.15598 8.93667 4.18309 8.92047C4.21021 8.90427 4.23356 8.88923 4.23499 8.88705C4.23642 8.88486 4.27028 8.86364 4.31024 8.83987C4.40797 8.78175 4.49131 8.73006 4.49448 8.72559C4.4959 8.72358 4.51339 8.71254 4.53333 8.70108C4.57329 8.67809 4.74525 8.57359 4.79029 8.54491C4.86208 8.4992 4.94874 8.4453 4.95361 8.44332C4.9639 8.43913 5.06797 8.37435 5.07054 8.37054C5.07197 8.36841 5.10583 8.34724 5.14579 8.32349C5.18575 8.29973 5.26749 8.24975 5.32743 8.21243C5.48215 8.1161 5.54021 8.08054 5.58173 8.05667C5.60171 8.04518 5.63324 8.02528 5.65179 8.01245C5.67035 7.99962 5.72873 7.96336 5.78154 7.93187C5.83434 7.90039 5.89273 7.86412 5.91128 7.85127C5.92984 7.83842 5.95553 7.82224 5.96837 7.81531C6.01934 7.78779 6.08796 7.74191 6.09289 7.73204C6.10124 7.71535 6.09999 6.67133 6.09163 6.67173C6.08806 6.6719 6.06412 6.686 6.03843 6.70307Z" fill="white"/>
</g>
<defs>
<clipPath id="clip0_511_154">
<rect width="9.99993" height="10.8333" fill="white"/>
</clipPath>
</defs>
</svg>
