<svg width="40" height="40" viewBox="0 0 40 40" fill="none" xmlns="http://www.w3.org/2000/svg">
<g clip-path="url(#clip0_448_254)">
<path fill-rule="evenodd" clip-rule="evenodd" d="M16.9708 0.115756C15.1263 0.408588 13.1283 1.02696 11.3257 1.86311C10.3869 2.29848 9.59068 2.72005 9.55626 2.79983C9.52165 2.8796 9.40051 2.94483 9.28709 2.94483C8.93101 2.94483 6.3749 5.01336 5.38285 6.10416C3.43393 8.24737 1.13721 12.1667 0.80634 13.9138C0.757622 14.1713 0.670153 14.5097 0.612218 14.6657C0.194256 15.7899 -0.0632543 18.3509 0.0134911 20.6206C0.18598 25.7275 2.21108 30.399 5.84201 34.0648C12.7751 41.0644 23.6605 41.9797 31.7208 36.2411C36.0425 33.1642 39.1121 28.0253 39.8244 22.6746C40.982 13.9808 36.3357 5.60148 28.2441 1.7907C25.8269 0.652267 23.4609 0.108006 20.5288 0.0159403C19.1839 -0.0264059 17.5827 0.0185869 16.9708 0.115756ZM9.3992 15.0366C6.55247 15.7156 4.75233 19.0729 5.59635 22.1286C5.88358 23.1684 7.03626 24.2968 7.85676 24.3416C9.56717 24.435 10.4992 24.0225 11.3989 22.7744C11.9173 22.0551 12.1583 22.0021 12.1583 22.6079C12.1583 23.5508 13.6162 23.8478 14.4247 23.0693L14.9249 22.5878L15.2388 23.0693C15.6594 23.7143 16.5232 23.7183 17.1601 23.0782C17.7344 22.501 17.7601 22.4992 17.8352 23.0309C17.8784 23.3364 18.022 23.4563 18.3449 23.4563C18.7065 23.4563 18.8381 23.3085 19.0187 22.7001C19.4713 21.1736 20.6055 19.3918 21.1245 19.3918C21.3483 19.3918 21.3914 19.5166 21.304 19.9117C21.2408 20.1975 21.1341 21.0036 21.0671 21.7029C20.9279 23.1544 21.1159 23.5508 21.9431 23.5508C22.5057 23.5508 23.5079 22.5812 23.8328 21.7225C24.0638 21.1117 24.3085 21.2936 24.4498 22.181C24.7938 24.344 25.8893 23.9174 27.8647 20.8505C27.9682 20.69 28.3124 20.5053 28.6298 20.4404L29.2065 20.3223L29.1245 21.4626C29.0176 22.947 29.3643 23.5508 30.3234 23.5508C30.7899 23.5508 31.1163 23.41 31.4244 23.0757L31.8625 22.6007L32.1723 23.0757C32.6337 23.7837 33.6033 23.7338 34.2435 22.9691C34.5113 22.6493 34.7305 22.2114 34.7305 21.9959C34.7305 21.673 34.655 21.7169 34.2997 22.2468C33.3191 23.709 32.9288 22.464 33.6067 20.0361C34.083 18.3301 33.935 17.939 33.0594 18.5895L32.5142 18.9946L32.1689 18.611C31.6663 18.0528 30.9037 18.2789 29.8048 19.3118C29.2998 19.7867 28.7836 20.1402 28.6578 20.0973C28.5013 20.044 28.4499 19.6506 28.4955 18.8504C28.5763 17.425 28.3619 17.0677 27.5888 17.3384C26.6594 17.6641 26.3644 19.3351 27.1244 19.969C27.5271 20.3049 27.456 20.7325 26.8343 21.7178C25.8526 23.2735 25.5067 22.895 25.3999 20.1487C25.3592 19.1028 25.246 18.3254 25.1288 18.2863C24.7336 18.1537 24.234 18.8619 24.1069 19.734C23.8572 21.4456 23.0371 22.7791 22.388 22.5288C22.1395 22.433 22.1032 22.2528 22.2027 21.6097C22.4615 19.9353 22.5168 18.7207 22.3457 18.4683C21.9683 17.9121 21.0728 18.4574 19.8977 19.9586L19.5281 20.4308L19.5582 19.4548C19.5922 18.3534 19.4948 18.1719 18.9608 18.3422C18.6818 18.4313 18.5549 18.6957 18.4606 19.3844C18.2292 21.0753 16.8964 23.3344 16.4152 22.851C16.1803 22.6148 16.3037 21.1615 16.6671 19.8839C16.871 19.1676 16.993 18.5086 16.9381 18.4195C16.7735 18.1517 16.4389 18.2347 15.9955 18.6534L15.5763 19.0493L15.3654 18.6534C15.0516 18.0639 14.1869 18.1388 13.4123 18.8222C13.0604 19.1328 12.5004 19.9623 12.1681 20.6654C10.8893 23.3707 9.20432 24.2524 7.75575 22.974C6.0239 21.4458 6.68865 17.5582 8.94136 16.0413C9.67345 15.5483 10.6856 15.478 11.031 15.896C11.2669 16.1816 11.2132 17.4367 10.9362 18.1157C10.7562 18.5572 11.0564 18.5339 11.6557 18.0604C12.1776 17.6477 12.4649 16.662 12.2559 16.0003C12.0091 15.219 10.6113 14.7473 9.3992 15.0366ZM27.5239 18.0016C27.3189 18.2076 27.3736 19.3566 27.5952 19.4941C27.8764 19.6689 27.9231 19.5814 27.9921 18.7481C28.0487 18.0634 27.822 17.7019 27.5239 18.0016ZM14.1696 19.3515C13.1076 20.5308 13.0239 22.7946 14.0421 22.7946C14.7091 22.7946 15.5462 20.5569 15.2791 19.4877C15.1387 18.9258 14.6113 18.861 14.1696 19.3515ZM30.9709 19.6156C30.5136 20.3637 30.1711 21.5379 30.2519 22.081C30.3341 22.6338 30.8776 22.9447 31.2976 22.6791C31.7701 22.3806 32.3132 20.7792 32.2473 19.8778C32.2012 19.2474 32.1155 19.0975 31.7727 19.0485C31.4673 19.0048 31.2506 19.1581 30.9709 19.6156Z" fill="url(#paint0_linear_448_254)"/>
<path fill-rule="evenodd" clip-rule="evenodd" d="M9.3992 15.0366C6.55247 15.7156 4.75233 19.0729 5.59635 22.1286C5.88358 23.1684 7.03626 24.2968 7.85676 24.3416C9.56717 24.435 10.4992 24.0225 11.3989 22.7744C11.9173 22.0551 12.1583 22.0021 12.1583 22.6079C12.1583 23.5508 13.6162 23.8478 14.4247 23.0693L14.9249 22.5878L15.2388 23.0693C15.6594 23.7143 16.5232 23.7183 17.1601 23.0782C17.7344 22.501 17.7601 22.4992 17.8352 23.0309C17.8784 23.3364 18.022 23.4563 18.3449 23.4563C18.7065 23.4563 18.8381 23.3085 19.0187 22.7001C19.4713 21.1736 20.6055 19.3918 21.1245 19.3918C21.3483 19.3918 21.3914 19.5166 21.304 19.9117C21.2408 20.1975 21.1341 21.0036 21.0671 21.7029C20.9279 23.1544 21.1159 23.5508 21.9431 23.5508C22.5057 23.5508 23.5079 22.5812 23.8328 21.7225C24.0638 21.1117 24.3085 21.2936 24.4498 22.181C24.7938 24.344 25.8893 23.9174 27.8647 20.8505C27.9682 20.69 28.3124 20.5053 28.6298 20.4404L29.2065 20.3223L29.1245 21.4626C29.0176 22.947 29.3643 23.5508 30.3234 23.5508C30.7899 23.5508 31.1163 23.41 31.4244 23.0757L31.8625 22.6007L32.1723 23.0757C32.6337 23.7837 33.6033 23.7338 34.2435 22.9691C34.5113 22.6493 34.7305 22.2114 34.7305 21.9959C34.7305 21.673 34.655 21.7169 34.2997 22.2468C33.3191 23.709 32.9288 22.464 33.6067 20.0361C34.083 18.3301 33.935 17.939 33.0594 18.5895L32.5142 18.9946L32.1689 18.611C31.6663 18.0528 30.9037 18.2789 29.8048 19.3118C29.2998 19.7867 28.7836 20.1402 28.6578 20.0973C28.5013 20.044 28.4499 19.6506 28.4955 18.8504C28.5763 17.425 28.3619 17.0677 27.5888 17.3384C26.6594 17.6641 26.3644 19.3351 27.1244 19.969C27.5271 20.3049 27.456 20.7325 26.8343 21.7178C25.8526 23.2735 25.5067 22.895 25.3999 20.1487C25.3592 19.1028 25.246 18.3254 25.1288 18.2863C24.7336 18.1537 24.234 18.8619 24.1069 19.734C23.8572 21.4456 23.0371 22.7791 22.388 22.5288C22.1395 22.433 22.1032 22.2528 22.2027 21.6097C22.4615 19.9353 22.5168 18.7207 22.3457 18.4683C21.9683 17.9121 21.0728 18.4574 19.8977 19.9586L19.5281 20.4308L19.5582 19.4548C19.5922 18.3534 19.4948 18.1719 18.9608 18.3422C18.6818 18.4313 18.5549 18.6957 18.4606 19.3844C18.2292 21.0753 16.8964 23.3344 16.4152 22.851C16.1803 22.6148 16.3037 21.1615 16.6671 19.8839C16.871 19.1676 16.993 18.5086 16.9381 18.4195C16.7735 18.1517 16.4389 18.2347 15.9955 18.6534L15.5763 19.0493L15.3654 18.6534C15.0516 18.0639 14.1869 18.1388 13.4123 18.8222C13.0604 19.1328 12.5004 19.9623 12.1681 20.6654C10.8893 23.3707 9.20432 24.2524 7.75575 22.974C6.0239 21.4458 6.68865 17.5582 8.94136 16.0413C9.67345 15.5483 10.6856 15.478 11.031 15.896C11.2669 16.1816 11.2132 17.4367 10.9362 18.1157C10.7562 18.5572 11.0564 18.5339 11.6557 18.0604C12.1776 17.6477 12.4649 16.662 12.2559 16.0003C12.0091 15.219 10.6113 14.7473 9.3992 15.0366ZM27.5952 19.4941C27.3736 19.3566 27.3189 18.2076 27.5239 18.0016C27.822 17.7019 28.0487 18.0634 27.9921 18.7481C27.9231 19.5814 27.8764 19.6689 27.5952 19.4941ZM14.0421 22.7946C13.0239 22.7946 13.1076 20.5308 14.1696 19.3515C14.6113 18.861 15.1387 18.9258 15.2791 19.4877C15.5462 20.5569 14.7091 22.7946 14.0421 22.7946ZM30.2519 22.081C30.1711 21.5379 30.5136 20.3637 30.9709 19.6156C31.2506 19.1581 31.4673 19.0048 31.7727 19.0485C32.1155 19.0975 32.2012 19.2474 32.2473 19.8778C32.3132 20.7792 31.7701 22.3806 31.2976 22.6791C30.8776 22.9447 30.3341 22.6338 30.2519 22.081Z" fill="white"/>
</g>
<defs>
<linearGradient id="paint0_linear_448_254" x1="10.1284" y1="2.97392" x2="30.455" y2="38.0047" gradientUnits="userSpaceOnUse">
<stop offset="0.215414" stop-color="#35EEFC"/>
<stop offset="0.574872" stop-color="#3163FF"/>
<stop offset="0.746045" stop-color="#533CFF"/>
<stop offset="1" stop-color="#7127FF"/>
</linearGradient>
<clipPath id="clip0_448_254">
<rect width="40" height="40" fill="white"/>
</clipPath>
</defs>
</svg>
